<?xml version="1.0" standalone="no"?>
<!DOCTYPE svg PUBLIC "-//W3C//DTD SVG 20010904//EN"
 "http://www.w3.org/TR/2001/REC-SVG-20010904/DTD/svg10.dtd">
<svg version="1.0" xmlns="http://www.w3.org/2000/svg"
 width="2078.000000pt" height="2078.000000pt" viewBox="0 0 2078.000000 2078.000000"
 preserveAspectRatio="xMidYMid meet">
<metadata>
Created by potrace 1.14, written by Peter Selinger 2001-2017
</metadata>
<g transform="translate(0.000000,2078.000000) scale(0.100000,-0.100000)"
fill="#000000" stroke="none">
<path d="M10018 20775 c-1 -1 -55 -6 -118 -9 -63 -4 -128 -9 -145 -11 -16 -2
-57 -6 -90 -10 -33 -3 -69 -8 -80 -10 -11 -2 -38 -6 -60 -9 -22 -3 -89 -14
-150 -26 -102 -18 -125 -23 -180 -34 -78 -16 -293 -75 -440 -121 -468 -148
-925 -346 -1325 -575 -152 -87 -208 -121 -405 -253 -146 -97 -447 -324 -526
-397 -9 -8 -43 -37 -75 -65 -214 -184 -371 -353 -650 -700 -546 -680 -932
-1457 -1149 -2315 -15 -58 -29 -116 -31 -129 -3 -12 -11 -51 -19 -85 -7 -33
-16 -78 -19 -100 -4 -21 -8 -41 -11 -45 -2 -4 -7 -30 -11 -57 -3 -27 -8 -58
-10 -69 -3 -11 -7 -36 -9 -55 -3 -19 -7 -48 -10 -65 -2 -16 -7 -57 -10 -90 -4
-33 -8 -71 -11 -85 -26 -155 -26 -768 0 -1040 2 -19 7 -64 10 -100 3 -36 8
-74 10 -85 2 -11 7 -47 10 -80 12 -104 57 -363 90 -510 113 -517 338 -1099
611 -1581 195 -343 316 -517 722 -1036 270 -345 468 -611 528 -707 6 -9 37
-56 69 -105 365 -559 649 -1232 801 -1896 2 -8 8 -35 14 -60 5 -25 12 -61 16
-80 3 -19 8 -46 10 -60 3 -14 8 -36 10 -50 3 -14 8 -41 11 -60 3 -19 7 -37 9
-40 2 -3 7 -35 10 -70 4 -36 8 -67 10 -70 2 -4 6 -28 10 -56 3 -27 7 -65 10
-84 2 -19 7 -60 10 -90 3 -30 8 -63 11 -72 3 -9 7 -27 10 -40 3 -13 7 -32 9
-43 3 -11 8 -31 12 -45 7 -23 10 -295 13 -1121 1 -320 5 -361 42 -449 20 -48
73 -99 128 -124 45 -20 47 -20 2110 -21 1136 0 2346 2 2690 5 l625 5 40 25
c70 43 98 86 118 182 13 61 14 119 19 1208 1 124 6 211 14 240 15 54 21 99 29
205 6 81 11 131 20 195 3 19 8 53 11 75 24 200 102 573 161 775 60 206 163
501 218 625 7 17 25 59 40 95 39 94 192 397 262 520 158 278 333 532 732 1060
634 839 727 980 966 1465 201 408 370 895 451 1300 52 261 84 470 99 646 4 41
8 88 10 104 24 200 24 730 0 975 -13 131 -36 326 -40 340 -2 8 -7 35 -10 60
-40 291 -195 870 -305 1135 -4 11 -22 56 -40 100 -18 44 -42 100 -53 125 -11
25 -35 81 -55 125 -134 307 -379 729 -600 1035 -67 92 -296 387 -311 400 -3 3
-39 43 -80 90 -165 189 -483 493 -716 685 -181 149 -528 390 -725 503 -19 11
-68 38 -108 61 -127 73 -451 226 -612 291 -85 34 -171 70 -191 80 -20 10 -87
32 -150 49 -108 29 -257 79 -344 115 -25 11 -52 15 -72 11 -22 -4 -51 2 -95
21 -107 45 -189 65 -293 70 -62 4 -119 13 -150 24 -58 22 -196 39 -475 57 -81
5 -847 13 -852 8z m918 -868 c29 -3 80 -16 115 -30 37 -14 97 -28 142 -32 80
-7 106 -10 167 -22 45 -8 47 -9 95 -21 22 -6 51 -13 65 -16 135 -26 499 -143
733 -236 669 -264 1347 -743 1848 -1304 24 -27 51 -56 59 -65 38 -40 164 -196
238 -293 240 -316 473 -718 625 -1075 144 -337 256 -713 317 -1058 5 -33 12
-71 15 -84 2 -13 7 -49 11 -80 3 -31 7 -63 9 -71 3 -16 13 -94 19 -150 3 -19
7 -69 11 -111 4 -42 9 -96 11 -120 10 -97 12 -647 3 -704 -5 -33 -21 -130 -35
-215 -53 -321 -102 -522 -185 -767 -120 -350 -256 -658 -434 -978 -180 -325
-305 -506 -730 -1060 -89 -115 -183 -239 -210 -275 -27 -36 -52 -67 -55 -70
-13 -12 -234 -315 -302 -415 -83 -122 -214 -340 -274 -455 -21 -41 -42 -76
-46 -78 -5 -2 -8 -8 -8 -13 0 -4 -33 -75 -73 -156 -248 -503 -438 -1067 -563
-1668 -2 -11 -8 -43 -14 -71 -6 -28 -13 -64 -16 -80 -3 -16 -11 -65 -19 -109
-17 -91 -21 -122 -30 -185 -3 -25 -8 -56 -10 -70 -3 -14 -8 -47 -11 -75 -3
-27 -7 -61 -9 -75 -4 -25 -9 -73 -24 -230 -5 -47 -9 -273 -9 -502 0 -230 -3
-422 -7 -428 -10 -16 -743 -9 -757 7 -6 8 -8 175 -4 490 8 585 10 653 31 1018
2 33 7 79 10 103 3 23 7 63 10 90 5 42 10 77 20 152 2 14 6 48 10 75 3 28 8
61 10 75 2 14 6 48 10 75 3 28 8 57 10 65 2 8 6 40 10 71 3 31 7 65 9 75 2 11
7 46 10 79 4 33 9 67 11 75 2 8 6 38 10 65 3 28 10 77 15 110 12 78 16 113 30
210 5 44 12 91 14 105 2 14 7 48 11 75 12 92 16 120 30 210 15 97 32 215 40
280 3 22 8 49 10 61 3 12 7 39 10 60 11 79 36 240 45 294 5 30 17 102 25 160
18 115 23 146 30 188 2 15 7 50 10 77 12 91 16 110 32 134 10 15 13 36 10 58
-5 25 0 42 18 69 13 19 22 41 20 47 -14 48 -13 66 5 87 11 13 20 33 20 46 0
24 36 196 70 334 12 47 23 94 25 104 32 144 146 535 224 771 84 256 121 357
249 685 189 486 234 619 256 770 13 89 14 309 2 385 -45 280 -186 539 -413
762 -109 107 -293 220 -373 228 -43 5 -80 21 -80 35 0 5 -22 9 -49 8 -34 0
-58 6 -78 21 -26 19 -44 21 -288 24 -246 4 -261 3 -281 -15 -12 -11 -36 -21
-53 -24 -133 -18 -152 -24 -266 -80 -205 -102 -432 -288 -523 -429 -25 -38
-69 -122 -97 -185 -43 -98 -54 -115 -74 -115 -18 0 -27 12 -50 65 -61 143 -94
203 -176 315 -174 236 -398 384 -682 451 -93 21 -181 29 -348 29 -201 0 -331
-14 -346 -37 -3 -5 -21 -11 -40 -12 -40 -4 -121 -37 -279 -113 -106 -52 -123
-65 -215 -157 -120 -121 -138 -141 -202 -237 -89 -132 -169 -305 -187 -404 -3
-14 -7 -33 -10 -43 -35 -117 -38 -388 -4 -532 23 -100 91 -312 163 -505 248
-667 401 -1130 520 -1571 9 -32 23 -84 31 -114 26 -93 125 -492 136 -545 10
-50 22 -103 31 -140 26 -102 118 -576 152 -785 36 -217 46 -280 50 -305 10
-68 54 -384 60 -434 4 -30 9 -63 11 -75 4 -22 22 -160 30 -231 2 -22 6 -49 9
-60 2 -11 6 -40 9 -65 3 -25 13 -101 22 -170 10 -69 18 -169 20 -222 1 -53 9
-119 17 -145 9 -26 18 -100 21 -163 3 -67 15 -163 30 -230 l25 -114 1 -753 c0
-522 -3 -754 -10 -758 -18 -11 -739 -10 -750 1 -7 7 -12 202 -15 520 -2 280
-6 529 -9 554 -2 25 -7 74 -10 110 -4 36 -8 76 -10 90 -3 14 -7 51 -11 84 -7
64 -14 103 -20 126 -2 8 -7 38 -11 65 -3 28 -8 53 -10 57 -3 4 -7 22 -9 40 -3
18 -7 42 -9 53 -6 26 -30 137 -55 252 -21 95 -81 328 -109 423 -8 30 -17 60
-18 65 -7 31 -77 245 -109 335 -21 58 -44 123 -52 145 -7 22 -18 49 -23 60 -5
11 -29 70 -54 130 -192 475 -478 975 -806 1410 -86 114 -265 344 -323 415 -7
8 -44 56 -82 105 -38 50 -74 95 -80 101 -5 6 -57 73 -115 149 -399 523 -658
995 -850 1550 -73 209 -158 518 -175 638 -4 23 -8 44 -10 47 -2 4 -7 29 -11
56 -3 27 -8 51 -9 54 -2 3 -6 33 -10 65 -3 33 -8 67 -11 75 -2 8 -6 38 -9 65
-3 28 -8 66 -10 85 -28 200 -33 662 -10 905 3 33 8 92 10 130 3 39 8 80 10 92
3 12 8 46 11 75 12 113 56 348 94 501 135 536 361 1016 775 1647 238 361 475
620 865 946 555 462 1090 764 1735 979 162 54 397 119 470 130 22 3 81 12 130
20 112 18 471 75 505 81 14 2 56 6 95 10 38 4 72 8 74 10 5 5 719 -4 787 -9z
m-1613 -5440 c268 -133 323 -498 108 -713 -234 -234 -601 -138 -706 185 -25
75 -17 215 16 291 13 30 27 57 31 58 4 2 8 8 8 14 0 19 61 87 113 125 81 59
164 84 269 80 76 -3 95 -8 161 -40z m2457 8 c144 -51 257 -178 289 -324 23
-108 -3 -237 -68 -331 -135 -196 -410 -247 -601 -111 -264 187 -242 580 43
736 92 51 240 64 337 30z m-1354 -836 c3 -33 47 -137 91 -219 142 -261 351
-452 605 -552 99 -39 216 -72 298 -83 25 -3 58 -8 74 -11 15 -3 44 -5 63 -6
18 -1 36 -5 39 -10 3 -4 -9 -56 -26 -115 -30 -102 -155 -555 -165 -598 -3 -11
-34 -137 -70 -280 -88 -351 -161 -679 -241 -1075 -14 -69 -27 -132 -29 -141
-2 -9 -6 -34 -10 -55 -9 -61 -15 -93 -30 -169 -7 -38 -16 -88 -20 -110 -4 -22
-9 -49 -11 -60 -1 -11 -10 -65 -19 -120 -9 -55 -18 -111 -20 -125 -14 -91 -64
-460 -80 -595 -4 -27 -8 -61 -10 -75 -2 -14 -9 -65 -15 -115 -6 -49 -29 -225
-50 -390 -38 -284 -44 -332 -55 -415 -2 -19 -7 -64 -11 -100 -3 -36 -7 -76 -9
-90 -21 -177 -37 -668 -39 -1272 -1 -208 -5 -381 -9 -385 -9 -8 -551 -11 -586
-3 l-25 6 -1 755 c-1 414 -5 772 -8 794 -3 22 -8 74 -11 116 -7 92 -13 157
-26 269 -6 47 -12 107 -15 134 -2 26 -7 65 -9 85 -5 32 -27 211 -41 326 -2 22
-6 56 -9 75 -2 19 -7 62 -11 95 -4 33 -8 71 -10 85 -2 14 -9 66 -15 115 -6 50
-13 106 -15 125 -3 19 -7 55 -10 80 -2 25 -6 61 -9 80 -3 19 -10 73 -16 120
-6 47 -13 96 -15 110 -2 14 -6 45 -10 70 -7 56 -23 158 -35 230 -5 30 -12 71
-15 90 -3 19 -10 60 -15 90 -5 30 -12 69 -15 86 -23 143 -121 612 -176 849
-17 72 -33 141 -35 155 -8 40 -132 532 -175 690 -67 251 -96 341 -167 529 -54
144 -53 147 50 150 123 4 194 15 303 46 325 95 595 344 781 723 26 53 52 103
57 110 15 19 29 10 33 -19z"/>
<path d="M7672 5067 c-158 -19 -253 -105 -279 -252 -36 -198 71 -400 269 -508
32 -18 56 -36 55 -42 -2 -5 -26 -20 -53 -33 -39 -18 -61 -39 -99 -93 -28 -39
-55 -75 -60 -82 -6 -7 -21 -29 -34 -50 -13 -21 -29 -44 -37 -52 -8 -8 -19 -39
-24 -69 -5 -30 -18 -76 -30 -104 -19 -43 -20 -62 -16 -156 7 -125 32 -210 95
-315 49 -84 161 -205 236 -256 30 -21 55 -41 55 -45 0 -4 -17 -19 -37 -33
-106 -75 -253 -259 -253 -316 0 -15 -15 -51 -34 -80 -31 -47 -34 -59 -32 -114
2 -37 -4 -87 -15 -125 l-18 -63 31 -87 c101 -287 255 -477 489 -599 72 -38
213 -89 274 -98 17 -3 39 -7 50 -10 53 -11 154 -18 300 -20 88 -1 163 -3 167
-4 19 -4 51 -78 55 -129 7 -90 41 -257 68 -328 126 -334 406 -643 730 -807
151 -76 363 -144 510 -163 22 -3 46 -7 54 -10 56 -18 436 -25 591 -11 370 36
688 179 934 421 112 110 189 203 261 317 36 58 96 186 118 254 44 133 59 227
61 375 l1 75 215 1 c186 0 225 3 290 21 41 12 104 24 140 28 75 7 154 42 262
115 212 141 355 354 417 620 16 69 16 81 3 114 -11 28 -12 46 -4 77 9 34 6 53
-19 132 -16 51 -29 97 -29 103 0 6 -16 25 -35 43 -21 19 -35 41 -35 55 0 17
-33 55 -116 136 l-117 112 64 40 c91 57 207 179 247 259 98 194 92 452 -15
665 -40 81 -140 197 -210 245 -36 25 -44 36 -41 56 2 14 10 30 18 34 107 60
148 88 195 135 161 161 173 387 30 531 -86 85 -69 83 -757 89 -1091 8 -4822 9
-4886 1z m4521 -781 c105 -11 169 -39 221 -97 143 -160 109 -417 -67 -503 -42
-21 -74 -28 -157 -33 -102 -6 -2712 -9 -3314 -3 -322 3 -362 7 -440 44 -104
49 -160 140 -160 262 0 76 38 158 97 210 48 42 142 89 207 103 28 6 289 10
675 9 522 -1 1545 9 1552 15 5 6 1330 -1 1386 -7z m-26 -1410 c152 -15 244
-76 304 -200 59 -124 46 -235 -38 -323 -27 -28 -71 -62 -98 -76 l-51 -25 -634
-2 c-349 -1 -1197 -3 -1885 -4 l-1250 -1 -58 23 c-70 29 -131 86 -159 150 -29
65 -29 187 0 254 24 55 85 119 140 147 91 46 136 50 677 51 509 1 1348 9 1351
13 6 5 1647 -1 1701 -7z m-968 -1405 c10 -1 12 -13 8 -48 -13 -113 -70 -216
-178 -320 -188 -182 -390 -264 -637 -258 -334 8 -649 220 -801 539 -17 35 -31
69 -31 75 0 7 221 10 746 10 411 0 748 1 749 3 3 3 110 2 144 -1z"/>
</g>
</svg>
