<svg id="visual" viewBox="0 0 960 540" width="960" height="540" xmlns="http://www.w3.org/2000/svg" xmlns:xlink="http://www.w3.org/1999/xlink" version="1.1"><rect x="0" y="0" width="960" height="540" fill="#c8ad55"></rect><defs><linearGradient id="grad1_0" x1="43.8%" y1="0%" x2="100%" y2="100%"><stop offset="14.444444444444446%" stop-color="#c8ad55" stop-opacity="1"></stop><stop offset="85.55555555555554%" stop-color="#c8ad55" stop-opacity="1"></stop></linearGradient></defs><defs><linearGradient id="grad2_0" x1="0%" y1="0%" x2="56.3%" y2="100%"><stop offset="14.444444444444446%" stop-color="#c8ad55" stop-opacity="1"></stop><stop offset="85.55555555555554%" stop-color="#c8ad55" stop-opacity="1"></stop></linearGradient></defs><g transform="translate(960, 0)"><path d="M0 486C-64.5 479.5 -128.9 473 -186 449C-243.1 425 -292.7 383.6 -338 338C-383.3 292.4 -424.1 242.6 -448.1 185.6C-472 128.6 -479 64.3 -486 0L0 0Z" fill="#271f30"></path></g><g transform="translate(0, 540)"><path d="M0 -486C57.8 -458.6 115.6 -431.2 167.2 -403.7C218.9 -376.3 264.5 -348.9 314.7 -314.7C364.9 -280.5 419.7 -239.6 449 -186C478.3 -132.4 482.2 -66.2 486 0L0 0Z" fill="#271f30"></path></g></svg>