<svg id="visual" viewBox="0 0 900 600" width="900" height="600" xmlns="http://www.w3.org/2000/svg" xmlns:xlink="http://www.w3.org/1999/xlink" version="1.1"><g stroke-width="1" stroke-linejoin="bevel"><path d="M464 283L556.5 320L570.5 210Z" fill="#091421" stroke="#091421"></path><path d="M570.5 210L451 178L464 283Z" fill="#1b1b2b" stroke="#1b1b2b"></path><path d="M464 283L545.5 399L556.5 320Z" fill="#231e2e" stroke="#231e2e"></path><path d="M680 418L679 306L556.5 320Z" fill="#1b1b2b" stroke="#1b1b2b"></path><path d="M556.5 320L679 306L570.5 210Z" fill="#271f30" stroke="#271f30"></path><path d="M673 178L578.5 102L570.5 210Z" fill="#111725" stroke="#111725"></path><path d="M570.5 210L578.5 102L451 178Z" fill="#091421" stroke="#091421"></path><path d="M679 306L673 178L570.5 210Z" fill="#181929" stroke="#181929"></path><path d="M336.5 301L435 409L464 283Z" fill="#231e2e" stroke="#231e2e"></path><path d="M464 283L435 409L545.5 399Z" fill="#181929" stroke="#181929"></path><path d="M578.5 102L467 82L451 178Z" fill="#111725" stroke="#111725"></path><path d="M334.5 206L464 283L451 178Z" fill="#111725" stroke="#111725"></path><path d="M334.5 206L336.5 301L464 283Z" fill="#04121e" stroke="#04121e"></path><path d="M345.5 93L334.5 206L451 178Z" fill="#271f30" stroke="#271f30"></path><path d="M769.5 200L697 122L673 178Z" fill="#091421" stroke="#091421"></path><path d="M673 178L697 122L578.5 102Z" fill="#00101c" stroke="#00101c"></path><path d="M578.5 102L546.5 0L467 82Z" fill="#00101c" stroke="#00101c"></path><path d="M584.5 487L680 418L545.5 399Z" fill="#141827" stroke="#141827"></path><path d="M545.5 399L680 418L556.5 320Z" fill="#181929" stroke="#181929"></path><path d="M679 306L769.5 200L673 178Z" fill="#04121e" stroke="#04121e"></path><path d="M429 480L584.5 487L545.5 399Z" fill="#1f1c2d" stroke="#1f1c2d"></path><path d="M336.5 301L346.5 419L435 409Z" fill="#111725" stroke="#111725"></path><path d="M435 409L429 480L545.5 399Z" fill="#181929" stroke="#181929"></path><path d="M346.5 419L429 480L435 409Z" fill="#04121e" stroke="#04121e"></path><path d="M467 82L345.5 93L451 178Z" fill="#181929" stroke="#181929"></path><path d="M680 418L772.5 300L679 306Z" fill="#1f1c2d" stroke="#1f1c2d"></path><path d="M772.5 300L769.5 200L679 306Z" fill="#1b1b2b" stroke="#1b1b2b"></path><path d="M669 0L546.5 0L578.5 102Z" fill="#231e2e" stroke="#231e2e"></path><path d="M467 82L461 0L345.5 93Z" fill="#111725" stroke="#111725"></path><path d="M546.5 0L461 0L467 82Z" fill="#0d1523" stroke="#0d1523"></path><path d="M584.5 487L661 504L680 418Z" fill="#091421" stroke="#091421"></path><path d="M680 418L803.5 419L772.5 300Z" fill="#00101c" stroke="#00101c"></path><path d="M569.5 600L661 504L584.5 487Z" fill="#091421" stroke="#091421"></path><path d="M345.5 93L238 196L334.5 206Z" fill="#1b1b2b" stroke="#1b1b2b"></path><path d="M334.5 206L238 196L336.5 301Z" fill="#1b1b2b" stroke="#1b1b2b"></path><path d="M336.5 301L247 409L346.5 419Z" fill="#1b1b2b" stroke="#1b1b2b"></path><path d="M697 122L669 0L578.5 102Z" fill="#091421" stroke="#091421"></path><path d="M768.5 0L669 0L697 122Z" fill="#00101c" stroke="#00101c"></path><path d="M346.5 419L332.5 501L429 480Z" fill="#1f1c2d" stroke="#1f1c2d"></path><path d="M442 600L569.5 600L584.5 487Z" fill="#181929" stroke="#181929"></path><path d="M247 409L332.5 501L346.5 419Z" fill="#1b1b2b" stroke="#1b1b2b"></path><path d="M900 196L806.5 121L769.5 200Z" fill="#04121e" stroke="#04121e"></path><path d="M769.5 200L806.5 121L697 122Z" fill="#141827" stroke="#141827"></path><path d="M238 196L216 296L336.5 301Z" fill="#00101c" stroke="#00101c"></path><path d="M216 296L247 409L336.5 301Z" fill="#271f30" stroke="#271f30"></path><path d="M805.5 493L803.5 419L680 418Z" fill="#04121e" stroke="#04121e"></path><path d="M772.5 300L900 196L769.5 200Z" fill="#1b1b2b" stroke="#1b1b2b"></path><path d="M461 0L316.5 0L345.5 93Z" fill="#091421" stroke="#091421"></path><path d="M345.5 93L239 84L238 196Z" fill="#1b1b2b" stroke="#1b1b2b"></path><path d="M316.5 0L239 84L345.5 93Z" fill="#111725" stroke="#111725"></path><path d="M238 196L106.5 186L216 296Z" fill="#231e2e" stroke="#231e2e"></path><path d="M442 600L584.5 487L429 480Z" fill="#1f1c2d" stroke="#1f1c2d"></path><path d="M661 504L805.5 493L680 418Z" fill="#04121e" stroke="#04121e"></path><path d="M332.5 501L442 600L429 480Z" fill="#111725" stroke="#111725"></path><path d="M806.5 121L768.5 0L697 122Z" fill="#00101c" stroke="#00101c"></path><path d="M772.5 600L805.5 493L661 504Z" fill="#04121e" stroke="#04121e"></path><path d="M803.5 419L900 309L772.5 300Z" fill="#111725" stroke="#111725"></path><path d="M569.5 600L666 600L661 504Z" fill="#0d1523" stroke="#0d1523"></path><path d="M900 415L900 309L803.5 419Z" fill="#271f30" stroke="#271f30"></path><path d="M806.5 121L900 0L768.5 0Z" fill="#1b1b2b" stroke="#1b1b2b"></path><path d="M900 309L900 196L772.5 300Z" fill="#111725" stroke="#111725"></path><path d="M106.5 478L238 509L247 409Z" fill="#1f1c2d" stroke="#1f1c2d"></path><path d="M247 409L238 509L332.5 501Z" fill="#00101c" stroke="#00101c"></path><path d="M332.5 501L322.5 600L442 600Z" fill="#091421" stroke="#091421"></path><path d="M238 509L322.5 600L332.5 501Z" fill="#271f30" stroke="#271f30"></path><path d="M900 196L900 110L806.5 121Z" fill="#0d1523" stroke="#0d1523"></path><path d="M316.5 0L218 0L239 84Z" fill="#0d1523" stroke="#0d1523"></path><path d="M101.5 113L106.5 186L238 196Z" fill="#1f1c2d" stroke="#1f1c2d"></path><path d="M805.5 493L900 415L803.5 419Z" fill="#231e2e" stroke="#231e2e"></path><path d="M666 600L772.5 600L661 504Z" fill="#1f1c2d" stroke="#1f1c2d"></path><path d="M805.5 493L900 519L900 415Z" fill="#271f30" stroke="#271f30"></path><path d="M101.5 113L238 196L239 84Z" fill="#181929" stroke="#181929"></path><path d="M216 296L112.5 409L247 409Z" fill="#231e2e" stroke="#231e2e"></path><path d="M106.5 186L92.5 294L216 296Z" fill="#00101c" stroke="#00101c"></path><path d="M92.5 294L112.5 409L216 296Z" fill="#00101c" stroke="#00101c"></path><path d="M238 509L220 600L322.5 600Z" fill="#00101c" stroke="#00101c"></path><path d="M114.5 0L101.5 113L239 84Z" fill="#1f1c2d" stroke="#1f1c2d"></path><path d="M0 219L0 294L92.5 294Z" fill="#091421" stroke="#091421"></path><path d="M900 600L900 519L805.5 493Z" fill="#1b1b2b" stroke="#1b1b2b"></path><path d="M900 110L900 0L806.5 121Z" fill="#1b1b2b" stroke="#1b1b2b"></path><path d="M109.5 600L220 600L238 509Z" fill="#091421" stroke="#091421"></path><path d="M0 396L106.5 478L112.5 409Z" fill="#271f30" stroke="#271f30"></path><path d="M112.5 409L106.5 478L247 409Z" fill="#271f30" stroke="#271f30"></path><path d="M218 0L114.5 0L239 84Z" fill="#0d1523" stroke="#0d1523"></path><path d="M772.5 600L900 600L805.5 493Z" fill="#231e2e" stroke="#231e2e"></path><path d="M0 219L92.5 294L106.5 186Z" fill="#231e2e" stroke="#231e2e"></path><path d="M92.5 294L0 396L112.5 409Z" fill="#141827" stroke="#141827"></path><path d="M0 219L106.5 186L0 120Z" fill="#231e2e" stroke="#231e2e"></path><path d="M0 120L106.5 186L101.5 113Z" fill="#091421" stroke="#091421"></path><path d="M0 511L109.5 600L106.5 478Z" fill="#111725" stroke="#111725"></path><path d="M106.5 478L109.5 600L238 509Z" fill="#04121e" stroke="#04121e"></path><path d="M0 294L0 396L92.5 294Z" fill="#1b1b2b" stroke="#1b1b2b"></path><path d="M0 0L0 120L101.5 113Z" fill="#1f1c2d" stroke="#1f1c2d"></path><path d="M0 396L0 511L106.5 478Z" fill="#271f30" stroke="#271f30"></path><path d="M114.5 0L0 0L101.5 113Z" fill="#231e2e" stroke="#231e2e"></path><path d="M0 511L0 600L109.5 600Z" fill="#0d1523" stroke="#0d1523"></path></g></svg>