<svg id="visual" viewBox="0 0 900 675" width="900" height="675" xmlns="http://www.w3.org/2000/svg" xmlns:xlink="http://www.w3.org/1999/xlink" version="1.1"><rect x="0" y="0" width="900" height="675" fill="#c8ad55"></rect><defs><linearGradient id="grad1_0" x1="25%" y1="0%" x2="100%" y2="100%"><stop offset="23.333333333333336%" stop-color="#c8ad55" stop-opacity="1"></stop><stop offset="76.66666666666666%" stop-color="#c8ad55" stop-opacity="1"></stop></linearGradient></defs><defs><linearGradient id="grad2_0" x1="0%" y1="0%" x2="75%" y2="100%"><stop offset="23.333333333333336%" stop-color="#c8ad55" stop-opacity="1"></stop><stop offset="76.66666666666666%" stop-color="#c8ad55" stop-opacity="1"></stop></linearGradient></defs><g transform="translate(900, 0)"><path d="M0 506.3C-58.1 480 -116.2 453.7 -179.5 433.3C-242.8 412.9 -311.2 398.5 -358 358C-404.7 317.4 -429.8 250.8 -450.9 186.7C-471.9 122.7 -489.1 61.4 -506.2 0L0 0Z" fill="#271f30"></path></g><g transform="translate(0, 675)"><path d="M0 -506.2C63.9 -486.3 127.8 -466.3 180.6 -436.1C233.5 -405.9 275.3 -365.5 326 -326C376.7 -286.5 436.2 -247.9 467.7 -193.7C499.2 -139.6 502.7 -69.8 506.3 0L0 0Z" fill="#271f30"></path></g></svg>