<?xml version="1.0" encoding="UTF-8" standalone="no"?>
<!DOCTYPE svg PUBLIC "-//W3C//DTD SVG 1.1//EN" "http://www.w3.org/Graphics/SVG/1.1/DTD/svg11.dtd">
<svg width="100%" height="100%" viewBox="0 0 1186 2078" version="1.1" xmlns="http://www.w3.org/2000/svg" xmlns:xlink="http://www.w3.org/1999/xlink" xml:space="preserve" xmlns:serif="http://www.serif.com/" style="fill-rule:evenodd;clip-rule:evenodd;stroke-linejoin:round;stroke-miterlimit:2;">
    <g transform="matrix(1,0,0,1,-451.966,-4.80184)">
        <g transform="matrix(1.06184,0,0,1.06184,-62.9103,-54.7444)">
            <g>
                <g transform="matrix(-4.16667,0,0,4.16667,3108.4,-625.46)">
                    <path d="M554.72,504.75L502.09,504.77C479.823,504.737 457.873,504.69 436.24,504.63C431.4,504.62 430.35,500.89 430.34,496.6C430.32,487.307 430.287,478.017 430.24,468.73C430.24,467.48 429.62,466.57 429.53,465.39C428.13,445.463 422.537,427.017 412.75,410.05C405.04,396.67 391.37,380.7 384.09,369.92C369.463,348.28 361.993,324.14 361.68,297.5C361.04,243.01 397.29,191.05 448.02,172.23C448.693,171.977 449.183,171.747 449.49,171.54C449.763,171.353 450.06,171.223 450.38,171.15C454.027,170.317 457.573,169.163 461.02,167.69C461.247,167.59 461.563,167.627 461.97,167.8C462.277,167.933 462.583,167.927 462.89,167.78C465.13,166.687 467.48,165.963 469.94,165.61C469.98,165.603 470.703,165.613 472.11,165.64C473.67,165.66 474.22,164.79 475.66,164.64C483.1,163.827 491.213,163.477 500,163.59C508.813,163.697 517.307,164.777 525.48,166.83C531.253,168.283 537.577,170.383 544.45,173.13C561.103,179.777 576.057,189.293 589.31,201.68C590.87,203.14 593.547,206.127 597.34,210.64C613.333,229.653 623.52,251.22 627.9,275.34C629.087,281.887 629.667,288.517 629.64,295.23C629.533,322.89 621.73,348.073 606.23,370.78C601.01,378.42 592.18,388.74 586.01,397.48C572.457,416.693 564.413,438.19 561.88,461.97C561.66,463.99 560.73,466.41 560.73,468C560.777,477.567 560.77,487.13 560.71,496.69C560.68,500.87 559.18,504.5 554.72,504.75ZM481.84,183.43C480.787,184.11 479.56,184.51 478.16,184.63C475.993,184.817 474.743,184.947 474.41,185.02C460.557,188.013 448.38,192.717 437.88,199.13C409.25,216.61 388.21,246.44 383.25,280.07C382.157,287.463 381.63,294.913 381.67,302.42C381.683,304.527 381.88,306.73 382.26,309.03C383.18,314.58 384.08,320.15 385.65,325.28C390.27,340.433 397.383,354.363 406.99,367.07C410.377,371.55 413.79,376.013 417.23,380.46C421.87,386.44 425.177,390.977 427.15,394.07C435.637,407.37 441.893,421.943 445.92,437.79C448.787,449.05 450.517,459.83 451.11,470.13L451.03,486.78C451.03,486.782 451.03,486.784 451.03,486.785C451.027,487.142 451.323,487.437 451.685,487.44C451.687,487.44 451.688,487.44 451.69,487.44L467.81,487.34C468.29,487.333 468.527,487.09 468.52,486.61L468.31,467.41C468.07,460.6 467.99,454.03 467.08,447.25C464.013,424.45 461.493,406.953 459.52,394.76C458.9,390.947 458.513,388.3 458.36,386.82C458.32,386.46 458.17,386.157 457.91,385.91C457.497,385.517 457.433,385.05 457.72,384.51C457.914,384.166 457.848,383.73 457.56,383.46C456.847,382.787 456.69,381.98 457.09,381.04C457.207,380.761 457.116,380.434 456.87,380.25C456.53,380.003 456.35,379.7 456.33,379.34C456.31,378.82 456.297,378.54 456.29,378.5C453.303,364.227 449.107,350.343 443.7,336.85C440.26,328.25 438.333,322.84 437.92,320.62C435.827,309.4 439.293,299.707 448.32,291.54C449.067,290.867 451.083,289.657 454.37,287.91C454.657,287.763 454.957,287.717 455.27,287.77C456.057,287.903 456.67,287.663 457.11,287.05C457.326,286.757 457.701,286.632 458.04,286.74C458.867,287 459.567,286.833 460.14,286.24C460.4,285.973 460.72,285.837 461.1,285.83C464.827,285.797 468.553,285.757 472.28,285.71C472.447,285.71 472.583,285.75 472.69,285.83C472.823,285.923 472.94,286.043 473.04,286.19C473.211,286.444 473.486,286.609 473.79,286.64C475.97,286.873 477.447,287.16 478.22,287.5C482.813,289.533 486.827,292.353 490.26,295.96C492.58,298.4 493.88,301.58 495.12,304.69C495.226,304.962 495.49,305.141 495.781,305.141C496.081,305.141 496.349,304.952 496.45,304.67C497.897,300.697 499.983,297.183 502.71,294.13C504.81,291.77 507.2,289.897 509.88,288.51C512.693,287.05 515.643,286.127 518.73,285.74C522.677,285.24 526.88,285.313 531.34,285.96C531.68,286.013 531.96,286.173 532.18,286.44C532.367,286.673 532.59,286.74 532.85,286.64C533.103,286.547 533.357,286.55 533.61,286.65C538.403,288.623 541.35,290.097 542.45,291.07C551.183,298.817 554.873,307.967 553.52,318.52C553.16,321.293 551.45,326.68 548.39,334.68C538.65,360.12 531.857,386.813 528.01,414.76C526.517,425.613 525.547,432.947 525.1,436.76C524.93,438.28 525.41,440.17 524.53,441.94C524.377,442.24 524.3,442.557 524.3,442.89L524.27,446.1C524.12,448.99 523.01,451.35 523,454C522.96,464.887 522.96,475.803 523,486.75C523,487.103 523.177,487.28 523.53,487.28L539.72,487.29C540.126,487.29 540.46,486.956 540.46,486.55C540.46,486.543 540.46,486.537 540.46,486.53C540.36,480.803 540.347,475.143 540.42,469.55C540.5,463.603 541.01,458.02 541.95,452.8C544.497,438.653 548.16,426.05 552.94,414.99C558,403.27 564.483,392.4 572.39,382.38C579.697,373.113 584.357,367.117 586.37,364.39C601.29,344.24 609.82,319.74 609.31,294.65C609.183,288.397 608.623,282.353 607.63,276.52C605.77,265.62 602.023,255.143 596.39,245.09C593.083,239.177 589.943,234.08 586.97,229.8C584.037,225.587 580.67,221.613 576.87,217.88C573.517,214.587 569.6,211.183 565.12,207.67C552.46,197.757 538.293,190.723 522.62,186.57C518.52,185.48 513.54,185.06 509.05,184.23C505.037,183.49 501.637,183.093 498.85,183.04C493.083,182.927 487.413,183.057 481.84,183.43ZM526.024,325.124C526.024,325.124 526.024,325.124 526.024,325.124C531.221,324.029 534.56,318.684 533.422,313.284C533.422,313.284 533.422,313.284 533.422,313.284C532.284,307.884 527.072,304.341 521.876,305.436C521.876,305.436 521.876,305.436 521.876,305.436C516.679,306.531 513.34,311.876 514.478,317.276C514.478,317.276 514.478,317.276 514.478,317.276C515.616,322.676 520.828,326.219 526.024,325.124ZM477.03,315.38C477.03,310.004 472.606,305.58 467.23,305.58C461.854,305.58 457.43,310.004 457.43,315.38C457.43,320.756 461.854,325.18 467.23,325.18C472.606,325.18 477.03,320.756 477.03,315.38ZM494.9,325.1C490.373,337.367 481.587,343.897 468.54,344.69C468.53,344.691 468.52,344.692 468.511,344.694C468.338,344.726 468.221,344.889 468.252,345.057C468.254,345.068 468.257,345.079 468.26,345.09C473.84,364.09 478.317,383.123 481.69,402.19C483.75,413.81 485.2,427.77 486.99,440.58C487.923,447.193 488.47,453.337 488.63,459.01C488.89,468.177 489,477.357 488.96,486.55C488.953,486.917 489.133,487.1 489.5,487.1L502.51,487.08C502.823,487.08 503.08,486.823 503.08,486.51C503.08,486.507 503.08,486.503 503.08,486.5C502.8,477.407 502.733,468.32 502.88,459.24C502.98,453.167 503.487,446.53 504.4,439.33C506.16,425.5 507.56,410.86 509.98,397.9C512.62,383.753 515.877,369.743 519.75,355.87C520.743,352.303 521.933,348.893 523.32,345.64C523.366,345.532 523.389,345.417 523.389,345.3C523.389,344.823 522.997,344.43 522.519,344.43C522.513,344.43 522.506,344.43 522.5,344.43C509.08,344.67 500.65,336.05 495.67,324.6C495.628,324.496 495.544,324.404 495.437,324.344C495.212,324.217 494.943,324.262 494.84,324.444C494.79,324.533 494.786,324.643 494.83,324.75L494.91,325C494.923,325.027 494.92,325.06 494.9,325.1Z" style="fill:rgb(207,92,54);fill-rule:nonzero;"/>
                </g>
                <g transform="matrix(-4.16667,0,0,4.16667,3108,-625.46)">
                    <path d="M555.65,518.55C560.603,518.783 563.19,521.14 563.41,525.62C563.53,528 562.923,530.133 561.59,532.02C560.237,533.94 558.397,535.43 556.07,536.49C555.939,536.547 555.854,536.677 555.854,536.82C555.854,536.963 555.939,537.093 556.07,537.15L557.97,538.03C558.23,538.15 558.447,538.33 558.62,538.57L562.48,544.06C562.693,544.36 562.807,544.693 562.82,545.06C562.88,546.167 563.2,547.21 563.78,548.19C563.967,548.497 564.043,548.827 564.01,549.18C563.79,551.46 564.08,553.34 563.24,555.45C561.627,559.49 558.977,562.683 555.29,565.03C555.278,565.038 555.267,565.047 555.256,565.057C555.17,565.141 555.164,565.279 555.245,565.361C555.255,565.372 555.267,565.382 555.28,565.39C557.767,567.11 559.79,569.28 561.35,571.9C561.537,572.22 561.65,572.563 561.69,572.93C561.79,573.923 562.207,574.773 562.94,575.48C563.197,575.725 563.32,576.079 563.27,576.43C563.023,578.023 563.197,579.557 563.79,581.03C563.923,581.357 563.94,581.69 563.84,582.03C560.333,594.117 551.983,600.16 538.79,600.16L534.9,600.09C534.547,600.083 534.257,600.22 534.03,600.5C533.477,601.187 533.17,601.953 533.11,602.8C532.83,606.667 532.06,609.883 530.8,612.45C526.72,620.743 520.783,626.52 512.99,629.78C506.03,632.7 498.12,633.767 489.26,632.98C477.993,631.987 469.157,626.827 462.75,617.5C459.23,612.373 457.623,606.78 457.93,600.72C457.95,600.373 457.787,600.207 457.44,600.22C454.58,600.32 451.78,600.357 449.04,600.33C448.22,600.317 447.073,600.077 445.6,599.61C443.93,599.08 442.47,599.42 440.88,598.66C433.513,595.167 429.1,589.337 427.64,581.17C427.573,580.797 427.637,580.45 427.83,580.13C428.223,579.47 428.25,578.777 427.91,578.05C427.775,577.748 427.753,577.407 427.85,577.09L429.21,572.72C429.303,572.42 429.493,572.203 429.78,572.07C430.327,571.81 430.62,571.38 430.66,570.78C430.693,570.36 430.86,570.007 431.16,569.72L435.56,565.55C435.827,565.29 435.797,565.067 435.47,564.88C429.543,561.467 426.827,556.587 427.32,550.24C427.747,544.673 430.15,540.403 434.53,537.43C434.61,537.375 434.681,537.309 434.742,537.234C435.091,536.804 435.029,536.165 434.603,535.819C434.527,535.757 434.441,535.707 434.35,535.67C429.54,533.68 425.58,528.61 427.68,523.37C429.04,519.98 431.32,518.73 435.11,518.79C443.697,518.917 452.213,518.85 460.66,518.59L555.65,518.55ZM464.17,550.83C499.903,550.917 523.937,550.86 536.27,550.66C538.59,550.62 541.57,549.37 542.63,547.03C545.5,540.66 539.42,536.39 533.75,536.47C518.93,536.67 506.497,536.643 496.45,536.39C483.37,536.123 470.287,536.067 457.2,536.22C454.307,536.253 452.257,536.65 451.05,537.41C445.94,540.63 446.65,549.89 453.49,550.6C454.99,550.76 458.55,550.837 464.17,550.83ZM452.56,582.32C480.267,582.467 508,582.557 535.76,582.59C539.25,582.6 542.73,580.87 543.25,577.05C543.717,573.637 542.54,571.143 539.72,569.57C538.167,568.71 535.75,568.29 532.47,568.31C519.657,568.39 506.813,568.32 493.94,568.1C481.793,568.06 469.64,568.06 457.48,568.1C454.68,568.113 452.593,568.57 451.22,569.47C448.13,571.51 446.25,576.43 448.87,579.63C449.757,580.717 450.987,581.613 452.56,582.32ZM481.95,609.16C492.79,618.97 509.27,613.69 514.27,600.37C514.37,600.103 514.277,599.97 513.99,599.97L495.61,600.1L477.51,599.92C477.09,599.913 476.9,600.12 476.94,600.54C477.22,603.733 478.89,606.607 481.95,609.16Z" style="fill:rgb(207,92,54);fill-rule:nonzero;"/>
                </g>
            </g>
        </g>
    </g>
</svg>
