<?xml version="1.0" encoding="UTF-8" standalone="no"?>
<!DOCTYPE svg PUBLIC "-//W3C//DTD SVG 1.1//EN" "http://www.w3.org/Graphics/SVG/1.1/DTD/svg11.dtd">
<svg width="100%" height="100%" viewBox="0 0 726 735" version="1.1" xmlns="http://www.w3.org/2000/svg" xmlns:xlink="http://www.w3.org/1999/xlink" xml:space="preserve" xmlns:serif="http://www.serif.com/" style="fill-rule:evenodd;clip-rule:evenodd;stroke-linejoin:round;stroke-miterlimit:2;">
    <g transform="matrix(1,0,0,1,-149.31,-144.72)">
        <g transform="matrix(1,0,0,1,0,102.674)">
            <g transform="matrix(1,0,0,1,16.3437,-121.523)">
                <path d="M554.72,504.75L502.09,504.77C479.823,504.737 457.873,504.69 436.24,504.63C431.4,504.62 430.35,500.89 430.34,496.6C430.32,487.307 430.287,478.017 430.24,468.73C430.24,467.48 429.62,466.57 429.53,465.39C428.13,445.463 422.537,427.017 412.75,410.05C405.04,396.67 391.37,380.7 384.09,369.92C369.463,348.28 361.993,324.14 361.68,297.5C361.04,243.01 397.29,191.05 448.02,172.23C448.693,171.977 449.183,171.747 449.49,171.54C449.763,171.353 450.06,171.223 450.38,171.15C454.027,170.317 457.573,169.163 461.02,167.69C461.247,167.59 461.563,167.627 461.97,167.8C462.277,167.933 462.583,167.927 462.89,167.78C465.13,166.687 467.48,165.963 469.94,165.61C469.98,165.603 470.703,165.613 472.11,165.64C473.67,165.66 474.22,164.79 475.66,164.64C483.1,163.827 491.213,163.477 500,163.59C508.813,163.697 517.307,164.777 525.48,166.83C531.253,168.283 537.577,170.383 544.45,173.13C561.103,179.777 576.057,189.293 589.31,201.68C590.87,203.14 593.547,206.127 597.34,210.64C613.333,229.653 623.52,251.22 627.9,275.34C629.087,281.887 629.667,288.517 629.64,295.23C629.533,322.89 621.73,348.073 606.23,370.78C601.01,378.42 592.18,388.74 586.01,397.48C572.457,416.693 564.413,438.19 561.88,461.97C561.66,463.99 560.73,466.41 560.73,468C560.777,477.567 560.77,487.13 560.71,496.69C560.68,500.87 559.18,504.5 554.72,504.75ZM481.84,183.43C480.787,184.11 479.56,184.51 478.16,184.63C475.993,184.817 474.743,184.947 474.41,185.02C460.557,188.013 448.38,192.717 437.88,199.13C409.25,216.61 388.21,246.44 383.25,280.07C382.157,287.463 381.63,294.913 381.67,302.42C381.683,304.527 381.88,306.73 382.26,309.03C383.18,314.58 384.08,320.15 385.65,325.28C390.27,340.433 397.383,354.363 406.99,367.07C410.377,371.55 413.79,376.013 417.23,380.46C421.87,386.44 425.177,390.977 427.15,394.07C435.637,407.37 441.893,421.943 445.92,437.79C448.787,449.05 450.517,459.83 451.11,470.13L451.03,486.78C451.03,486.782 451.03,486.784 451.03,486.785C451.027,487.142 451.323,487.437 451.685,487.44C451.687,487.44 451.688,487.44 451.69,487.44L467.81,487.34C468.29,487.333 468.527,487.09 468.52,486.61L468.31,467.41C468.07,460.6 467.99,454.03 467.08,447.25C464.013,424.45 461.493,406.953 459.52,394.76C458.9,390.947 458.513,388.3 458.36,386.82C458.32,386.46 458.17,386.157 457.91,385.91C457.497,385.517 457.433,385.05 457.72,384.51C457.914,384.166 457.848,383.73 457.56,383.46C456.847,382.787 456.69,381.98 457.09,381.04C457.207,380.761 457.116,380.434 456.87,380.25C456.53,380.003 456.35,379.7 456.33,379.34C456.31,378.82 456.297,378.54 456.29,378.5C453.303,364.227 449.107,350.343 443.7,336.85C440.26,328.25 438.333,322.84 437.92,320.62C435.827,309.4 439.293,299.707 448.32,291.54C449.067,290.867 451.083,289.657 454.37,287.91C454.657,287.763 454.957,287.717 455.27,287.77C456.057,287.903 456.67,287.663 457.11,287.05C457.326,286.757 457.701,286.632 458.04,286.74C458.867,287 459.567,286.833 460.14,286.24C460.4,285.973 460.72,285.837 461.1,285.83C464.827,285.797 468.553,285.757 472.28,285.71C472.447,285.71 472.583,285.75 472.69,285.83C472.823,285.923 472.94,286.043 473.04,286.19C473.211,286.444 473.486,286.609 473.79,286.64C475.97,286.873 477.447,287.16 478.22,287.5C482.813,289.533 486.827,292.353 490.26,295.96C492.58,298.4 493.88,301.58 495.12,304.69C495.226,304.962 495.49,305.141 495.781,305.141C496.081,305.141 496.349,304.952 496.45,304.67C497.897,300.697 499.983,297.183 502.71,294.13C504.81,291.77 507.2,289.897 509.88,288.51C512.693,287.05 515.643,286.127 518.73,285.74C522.677,285.24 526.88,285.313 531.34,285.96C531.68,286.013 531.96,286.173 532.18,286.44C532.367,286.673 532.59,286.74 532.85,286.64C533.103,286.547 533.357,286.55 533.61,286.65C538.403,288.623 541.35,290.097 542.45,291.07C551.183,298.817 554.873,307.967 553.52,318.52C553.16,321.293 551.45,326.68 548.39,334.68C538.65,360.12 531.857,386.813 528.01,414.76C526.517,425.613 525.547,432.947 525.1,436.76C524.93,438.28 525.41,440.17 524.53,441.94C524.377,442.24 524.3,442.557 524.3,442.89L524.27,446.1C524.12,448.99 523.01,451.35 523,454C522.96,464.887 522.96,475.803 523,486.75C523,487.103 523.177,487.28 523.53,487.28L539.72,487.29C540.126,487.29 540.46,486.956 540.46,486.55C540.46,486.543 540.46,486.537 540.46,486.53C540.36,480.803 540.347,475.143 540.42,469.55C540.5,463.603 541.01,458.02 541.95,452.8C544.497,438.653 548.16,426.05 552.94,414.99C558,403.27 564.483,392.4 572.39,382.38C579.697,373.113 584.357,367.117 586.37,364.39C601.29,344.24 609.82,319.74 609.31,294.65C609.183,288.397 608.623,282.353 607.63,276.52C605.77,265.62 602.023,255.143 596.39,245.09C593.083,239.177 589.943,234.08 586.97,229.8C584.037,225.587 580.67,221.613 576.87,217.88C573.517,214.587 569.6,211.183 565.12,207.67C552.46,197.757 538.293,190.723 522.62,186.57C518.52,185.48 513.54,185.06 509.05,184.23C505.037,183.49 501.637,183.093 498.85,183.04C493.083,182.927 487.413,183.057 481.84,183.43ZM526.024,325.124C526.024,325.124 526.024,325.124 526.024,325.124C531.221,324.029 534.56,318.684 533.422,313.284C533.422,313.284 533.422,313.284 533.422,313.284C532.284,307.884 527.072,304.341 521.876,305.436C521.876,305.436 521.876,305.436 521.876,305.436C516.679,306.531 513.34,311.876 514.478,317.276C514.478,317.276 514.478,317.276 514.478,317.276C515.616,322.676 520.828,326.219 526.024,325.124ZM477.03,315.38C477.03,310.004 472.606,305.58 467.23,305.58C461.854,305.58 457.43,310.004 457.43,315.38C457.43,320.756 461.854,325.18 467.23,325.18C472.606,325.18 477.03,320.756 477.03,315.38ZM494.9,325.1C490.373,337.367 481.587,343.897 468.54,344.69C468.53,344.691 468.52,344.692 468.511,344.694C468.338,344.726 468.221,344.889 468.252,345.057C468.254,345.068 468.257,345.079 468.26,345.09C473.84,364.09 478.317,383.123 481.69,402.19C483.75,413.81 485.2,427.77 486.99,440.58C487.923,447.193 488.47,453.337 488.63,459.01C488.89,468.177 489,477.357 488.96,486.55C488.953,486.917 489.133,487.1 489.5,487.1L502.51,487.08C502.823,487.08 503.08,486.823 503.08,486.51C503.08,486.507 503.08,486.503 503.08,486.5C502.8,477.407 502.733,468.32 502.88,459.24C502.98,453.167 503.487,446.53 504.4,439.33C506.16,425.5 507.56,410.86 509.98,397.9C512.62,383.753 515.877,369.743 519.75,355.87C520.743,352.303 521.933,348.893 523.32,345.64C523.366,345.532 523.389,345.417 523.389,345.3C523.389,344.823 522.997,344.43 522.519,344.43C522.513,344.43 522.506,344.43 522.5,344.43C509.08,344.67 500.65,336.05 495.67,324.6C495.628,324.496 495.544,324.404 495.437,324.344C495.212,324.217 494.943,324.262 494.84,324.444C494.79,324.533 494.786,324.643 494.83,324.75L494.91,325C494.923,325.027 494.92,325.06 494.9,325.1Z" style="fill:white;fill-rule:nonzero;"/>
            </g>
            <g transform="matrix(0.999048,-0.0436194,0.0436194,0.999048,350.14,76.04)">
                <ellipse cx="0" cy="0" rx="16.01" ry="15.73" style="fill:white;"/>
            </g>
            <g transform="matrix(1,0,0,1,15.61,-124.8)">
                <path d="M671.85,206.19C670.79,208.75 669.133,210.88 666.88,212.58C660.127,217.673 653.313,217.757 646.44,212.83C645.307,212.017 644.207,210.617 643.14,208.63C642.987,208.35 642.91,208.047 642.91,207.72C642.917,207.033 642.66,206.467 642.14,206.02C641.887,205.8 641.727,205.523 641.66,205.19C640.053,196.71 642.553,190.71 649.16,187.19C655.45,183.85 663.44,185.01 668.46,190.08C672.087,193.747 673.577,197.807 672.93,202.26C672.731,203.608 672.368,204.928 671.85,206.19Z" style="fill:white;fill-rule:nonzero;"/>
            </g>
            <g transform="matrix(1,0,0,1,15.61,-124.8)">
                <path d="M238.05,252.61C238.35,252.27 238.72,252.18 239.16,252.34C239.46,252.453 239.77,252.48 240.09,252.42C244.197,251.66 247.877,252.167 251.13,253.94C254.01,255.507 256.333,257.973 258.1,261.34C261.56,267.927 260.253,274.197 254.18,280.15C247.38,286.83 235.51,285.72 229.72,278.26C227.38,275.253 226.31,271.683 226.51,267.55C226.79,261.583 229.83,256.857 235.63,253.37C236.13,253.07 236.633,252.94 237.14,252.98C237.5,253.013 237.803,252.89 238.05,252.61Z" style="fill:white;fill-rule:nonzero;"/>
            </g>
            <g transform="matrix(1,0,0,1,15.61,-124.8)">
                <circle cx="749.46" cy="268.29" r="16.29" style="fill:white;"/>
            </g>
            <g transform="matrix(1,0,0,1,15.61,-124.8)">
                <circle cx="315.08" cy="270.48" r="10.41" style="fill:white;"/>
            </g>
            <g transform="matrix(-0.328867,0.944376,-0.944376,-0.328867,692.55,145.66)">
                <ellipse cx="0" cy="0" rx="10.6" ry="10.1" style="fill:white;"/>
            </g>
            <g transform="matrix(1,0,0,1,15.61,-124.8)">
                <path d="M582.77,298.97C582.791,299.013 582.803,299.061 582.805,299.109C582.812,299.301 582.655,299.465 582.457,299.471C582.411,299.473 582.364,299.466 582.32,299.45C581.693,299.21 581.5,298.78 581.74,298.16C581.793,298.028 581.922,297.941 582.064,297.941C582.199,297.941 582.322,298.019 582.38,298.14L582.77,298.97Z" style="fill:rgb(3,21,25);fill-opacity:0.23;fill-rule:nonzero;"/>
            </g>
            <g transform="matrix(0.206204,0.978509,-0.978509,0.206204,539.56,190.48)">
                <ellipse cx="0" cy="0" rx="10.06" ry="9.68" style="fill-opacity:0.01;"/>
            </g>
            <g transform="matrix(1,0,0,1,15.61,-124.8)">
                <circle cx="467.23" cy="315.38" r="9.8" style="fill-opacity:0.01;"/>
            </g>
            <g transform="matrix(0.477159,0.878817,-0.878817,0.477159,596.98,183.13)">
                <ellipse cx="0" cy="0" rx="0.98" ry="0.69" style="fill:rgb(3,21,25);fill-opacity:0.23;"/>
            </g>
            <g transform="matrix(1,0,0,1,10.1487,-118.392)">
                <path d="M298.47,527.15C299.897,526.657 302.077,526.133 305.01,525.58C311.61,524.327 318.6,521.387 325.98,516.76C326.887,516.193 327.69,515.55 328.39,514.83C328.59,514.623 328.59,514.417 328.39,514.21L290.64,476C290.393,475.753 290.1,475.667 289.76,475.74L285,476.8C277.78,477.82 271.777,477.96 266.99,477.22C250.85,474.707 238.787,466.297 230.8,451.99C228.753,448.31 227.283,444.7 226.39,441.16C226.31,440.833 226.32,440.51 226.42,440.19C226.58,439.67 226.46,439.313 226.06,439.12C225.707,438.96 225.59,438.693 225.71,438.32C225.97,437.52 225.913,436.743 225.54,435.99C225.427,435.75 225.37,435.5 225.37,435.24L225.28,427.54C225.273,427.247 225.177,426.987 224.99,426.76C218.043,418.393 214.82,408.72 215.32,397.74C215.593,391.76 216.813,386.01 218.98,380.49C221.35,374.44 223.74,370 228.35,365.82C231.14,363.29 232.64,365.45 234.07,367.94C238.99,376.53 247.99,380.04 257.48,382.2C258.75,382.49 260.81,382.12 262.26,383.29C262.527,383.503 262.83,383.59 263.17,383.55C269.637,382.803 276.13,382.62 282.65,383C282.75,383.007 282.84,383.043 282.92,383.11L283.18,383.32C283.22,383.36 283.27,383.38 283.33,383.38C286.977,383.46 290.933,384.353 295.2,386.06C299.94,387.96 304.14,390.373 307.8,393.3C311.4,396.18 314.493,399.807 317.08,404.18C323.04,414.253 325.193,425.4 323.54,437.62C323.527,437.68 323.413,438.083 323.2,438.83C323.04,439.383 323.147,439.853 323.52,440.24C336.43,453.73 349.84,466.7 362.47,480.54C362.557,480.636 362.681,480.691 362.81,480.691C362.983,480.691 363.141,480.594 363.22,480.44C365.573,475.773 367.59,470.953 369.27,465.98C372.97,455.06 374.03,443.47 373.86,431.94C373.813,428.873 374.167,426.637 374.92,425.23C376.467,422.363 379.1,420.85 382.82,420.69C382.853,420.69 383.297,420.75 384.15,420.87C384.503,420.917 384.833,420.847 385.14,420.66C385.44,420.467 385.76,420.417 386.1,420.51C388.68,421.21 390.65,422.58 392.01,424.62C392.95,426.033 393.477,428.173 393.59,431.04C393.797,436.367 393.843,441.707 393.73,447.06C393.703,448.4 393.483,450.177 393.07,452.39C392.62,454.78 392.57,457.35 392.08,459.53C379.46,515.67 329.02,550.37 272.5,547.99C264.66,547.663 257.66,546.68 251.5,545.04C230.87,539.56 211.74,530.23 196.64,514.86C175.947,493.807 164.413,469.103 162.04,440.75C160.54,422.877 163.19,405.19 169.99,387.69C172.417,381.457 175.39,375.5 178.91,369.82C195.397,343.26 219.19,325.673 250.29,317.06C251.597,316.7 254.4,316.127 258.7,315.34C259.427,315.207 260.973,315.11 263.34,315.05C265.64,314.99 267.45,314.16 269.56,314.12C275.35,314.02 281.61,313.54 287.31,314.53C288.397,314.717 289.79,314.89 291.49,315.05C299.97,315.877 308.767,317.973 317.88,321.34C323.68,323.48 329.08,325.51 331.71,330.06C332.283,331.053 332.57,332.523 332.57,334.47C332.57,336.083 332.27,337.517 331.67,338.77C328.82,344.74 321.69,345.12 316.38,341.63C316.1,341.443 315.79,341.363 315.45,341.39C314.23,341.5 313.3,340.68 312.44,340.37C295.02,334.037 277.177,332.453 258.91,335.62C257.41,335.88 255.343,336.39 252.71,337.15C250.05,337.93 246.93,338.52 244.5,339.54C224.473,347.927 208.573,360.983 196.8,378.71C189.74,389.32 185.62,401.11 183.4,413.57C183.393,413.617 183.25,414.227 182.97,415.4C182.62,416.86 183.11,419.43 182.36,420.65C182.193,420.917 182.097,421.21 182.07,421.53C181.317,430.417 181.46,438.063 182.5,444.47C186.687,470.157 198.657,491.027 218.41,507.08C227.283,514.293 237.387,519.843 248.72,523.73C250.24,524.257 252.467,524.863 255.4,525.55C257.64,526.077 259.863,526.67 262.07,527.33C264.297,527.99 267.44,528.16 271.5,527.84C271.787,527.813 272.037,527.893 272.25,528.08C272.65,528.433 273.133,528.613 273.7,528.62C277.293,528.687 280.887,528.7 284.48,528.66C288.82,528.61 293.66,527.16 298.47,527.15ZM235.24,400.27C237.04,409.99 240.91,418.123 246.85,424.67C248.383,426.357 250.543,428.15 253.33,430.05C254.91,431.12 255.63,432.18 255.55,434.02C255.337,439.34 252.707,441.607 247.66,440.82C247.313,440.767 247.213,440.9 247.36,441.22C251.553,450.193 258.54,455.55 268.32,457.29C268.44,457.317 268.793,457.293 269.38,457.22C269.6,457.187 269.8,457.263 269.98,457.45C270.207,457.69 270.487,457.817 270.82,457.83C272.653,457.903 274.493,457.93 276.34,457.91C280.34,457.85 284.01,455.9 287.85,454.72C288.17,454.627 288.3,454.413 288.24,454.08C288.027,452.867 287.443,451.837 286.49,450.99C286.243,450.777 286.1,450.507 286.06,450.18C285.15,443.59 290.68,437.3 297.09,442.71L311.79,458.32C311.994,458.535 312.096,458.827 312.07,459.12L311.94,460.99C311.08,462.47 309.633,463.337 307.6,463.59C306.663,463.706 305.951,464.511 305.951,465.456C305.951,465.987 306.176,466.494 306.57,466.85C317.083,476.43 327.333,486.54 337.32,497.18C339.393,499.387 341.243,501.67 342.87,504.03C342.894,504.064 342.92,504.097 342.948,504.127C343.295,504.509 343.891,504.54 344.268,504.197C344.301,504.167 344.332,504.134 344.36,504.1L348.09,499.61C349.717,498.463 350.807,497.337 351.36,496.23C351.52,495.903 351.47,495.61 351.21,495.35C335.89,480.23 320.647,465.033 305.48,449.76C304.493,448.767 303.277,447.347 301.83,445.5C301.615,445.222 301.565,444.854 301.7,444.54C302.76,442.12 303.76,440.5 304.09,437.93C305,430.96 304.95,423.74 301.76,417.43C297.773,409.537 291.397,404.61 282.63,402.65C280.497,402.177 277.553,401.943 273.8,401.95C266.37,401.98 257.84,402.43 251.67,401.09C246.01,399.857 240.85,397.467 236.19,393.92C236.083,393.84 235.953,393.797 235.82,393.797C235.483,393.797 235.204,394.073 235.2,394.41L235.24,400.27Z" style="fill:white;fill-rule:nonzero;"/>
            </g>
            <g transform="matrix(1,0,0,1,24.4847,-118.482)">
                <path d="M706.45,469.3L662.1,513.75C661.8,514.057 661.83,514.327 662.19,514.56C668.33,518.54 674.717,521.57 681.35,523.65C688.337,525.383 693.057,526.5 695.51,527C697.79,527.467 700.233,527.6 702.84,527.4C704.21,527.29 704.58,528.02 705.77,528.09C712.583,528.49 719.33,528.33 726.01,527.61C726.71,527.897 727.25,527.987 727.63,527.88C730.703,526.973 733.977,526.29 737.45,525.83L738.93,525.15C753.323,521.303 765.86,514.61 776.54,505.07C788.42,494.457 797.423,481.81 803.55,467.13C806.057,461.117 807.817,454.717 808.83,447.93C810.09,439.483 810.453,431.257 809.92,423.25C809.24,413.09 806.833,403.17 802.7,393.49C798.2,382.96 791.63,373.62 784.02,364.72C780.093,360.133 775.867,356.317 771.34,353.27C747.93,335.1 719.61,330.02 691,336.82C687.68,337.607 682.07,339.407 674.17,342.22C670.657,343.473 667.973,343.947 666.12,343.64C660.41,342.69 658.37,336.76 660.04,331.69C661.387,327.603 664.337,324.797 668.89,323.27C671.823,322.283 674.763,321.313 677.71,320.36C680.5,319.45 684.63,318.77 688.02,317.62C689.573,317.1 690.943,316.747 692.13,316.56C695.063,316.1 698,315.653 700.94,315.22C704.327,314.72 707.277,314.413 709.79,314.3C732.77,313.247 754.19,318.627 774.05,330.44C788.423,338.98 799.767,349.41 808.08,361.73C816.893,374.777 823.117,388.203 826.75,402.01C830.043,414.523 830.997,427.973 829.61,442.36C827.397,465.32 818.93,486.04 804.21,504.52C795.903,514.947 786.48,523.317 775.94,529.63C763.553,537.037 751.12,542.387 738.64,545.68C738.393,545.747 737.613,545.833 736.3,545.94C735.04,546.04 734.29,546.71 733.21,546.84C723.803,547.96 714.39,548.29 704.97,547.83C698.03,547.49 691.443,546.553 685.21,545.02C661.95,539.3 638.66,526.55 623.26,507.87C611.2,493.25 603.177,476.577 599.19,457.85C597.45,449.67 597.82,440.8 597.92,432.23C597.98,427.3 599.04,422.95 603.73,421.26C605.49,420.627 607.457,420.49 609.63,420.85C611.71,421.197 613.403,422.027 614.71,423.34C617.05,425.7 617.77,427.99 617.57,431.52C616.57,449.393 620.48,465.983 629.3,481.29C629.414,481.488 629.626,481.611 629.855,481.611C630.058,481.611 630.249,481.514 630.37,481.35C631.69,479.56 632.76,477.92 634.36,476.37C642.84,468.09 651.38,459.873 659.98,451.72C667.44,444.65 674.06,437.76 680.92,430.57C681.153,430.323 681.27,430.03 681.27,429.69C681.243,424.743 681.627,421.08 682.42,418.7C687.06,404.653 695.82,394.597 708.7,388.53C711.16,387.37 714.59,386.283 718.99,385.27C722.503,384.457 726.013,383.593 729.52,382.68C742.667,379.253 754.04,373.067 763.64,364.12C764.52,363.307 765.35,363.12 766.13,363.56C766.637,363.84 766.983,364.443 767.17,365.37C767.79,368.55 768.94,371.53 768.97,374.75C769.043,383.457 769.037,392.167 768.95,400.88C768.94,402.4 768.22,403.39 768.04,404.83C766.253,419.283 762.213,432.337 755.92,443.99C750.3,454.41 737.14,462.75 725.68,464.83C724.133,465.117 722.033,465.11 719.38,464.81C712.593,464.043 708.283,465.54 706.45,469.3ZM643.51,500.46L647.37,504.6C647.603,504.847 647.83,504.84 648.05,504.58C650.783,501.333 655.007,496.847 660.72,491.12C669.147,482.673 677.563,474.223 685.97,465.77C686.93,464.803 687.38,463.887 687.32,463.02C687.253,462.06 686.877,460.997 686.19,459.83L711.42,435.33C711.667,435.09 711.947,435.043 712.26,435.19C714.1,436.06 716.86,437.38 715.79,439.96C714.923,441.393 713.73,442.543 712.21,443.41C711.846,443.621 711.622,444.011 711.622,444.431C711.622,444.995 712.026,445.484 712.58,445.59C721.907,447.303 729.617,444.687 735.71,437.74C741.24,431.44 743.58,421.1 746.34,413.29C746.359,413.235 746.369,413.178 746.369,413.12C746.369,412.834 746.134,412.6 745.849,412.6C745.842,412.6 745.836,412.6 745.83,412.6C742.097,412.713 739.627,411.01 738.42,407.49C737.933,405.463 738,403.46 738.62,401.48C738.74,401.1 738.613,400.977 738.24,401.11C730.52,403.86 722.76,404.24 715.75,406.92C705.18,410.96 697.51,423.69 703.14,434.7C703.293,435.007 703.267,435.297 703.06,435.57C701.787,437.283 700.847,438.427 700.24,439C684.247,454.133 668.357,469.377 652.57,484.73C648.81,488.4 644.43,492.08 640.39,495.84C640.172,496.046 640.097,496.362 640.2,496.64C640.887,498.5 641.99,499.773 643.51,500.46Z" style="fill:white;fill-rule:nonzero;"/>
            </g>
            <g transform="matrix(1,0,0,1,15.61,-124.8)">
                <path d="M714.3,468.57C713.953,468.29 713.81,467.897 713.87,467.39C713.904,467.099 714.153,466.877 714.446,466.877C714.654,466.877 714.847,466.989 714.95,467.17C715.17,467.55 715.203,467.95 715.05,468.37C714.897,468.79 714.647,468.857 714.3,468.57Z" style="fill:rgb(3,21,25);fill-opacity:0.23;fill-rule:nonzero;"/>
            </g>
            <g transform="matrix(-0.0714974,0.997441,-0.997441,-0.0714974,731.96,345.22)">
                <ellipse cx="0" cy="0" rx="0.96" ry="0.51" style="fill:rgb(3,21,25);fill-opacity:0.23;"/>
            </g>
            <g transform="matrix(1,0,0,1,15.61,-124.8)">
                <path d="M459.17,472.68C459.177,472.88 458.97,472.913 458.55,472.78C458.289,472.7 458.12,472.447 458.15,472.18C458.217,471.56 458,471.113 457.5,470.84C456.747,470.44 456.797,470.273 457.65,470.34C458.45,470.407 459.17,470.757 459.81,471.39C460.023,471.603 460.01,471.8 459.77,471.98L459.38,472.26C459.233,472.36 459.163,472.5 459.17,472.68Z" style="fill-opacity:0.01;fill-rule:nonzero;"/>
            </g>
            <g transform="matrix(1,0,0,1,15.61,-124.8)">
                <circle cx="842.33" cy="534.64" r="16.75" style="fill:white;"/>
            </g>
            <g transform="matrix(1,0,0,1,15.61,-124.8)">
                <circle cx="150.27" cy="534.54" r="16.57" style="fill:white;"/>
            </g>
            <g transform="matrix(1,0,0,1,16.4394,-118.246)">
                <path d="M555.65,518.55C560.603,518.783 563.19,521.14 563.41,525.62C563.53,528 562.923,530.133 561.59,532.02C560.237,533.94 558.397,535.43 556.07,536.49C555.939,536.547 555.854,536.677 555.854,536.82C555.854,536.963 555.939,537.093 556.07,537.15L557.97,538.03C558.23,538.15 558.447,538.33 558.62,538.57L562.48,544.06C562.693,544.36 562.807,544.693 562.82,545.06C562.88,546.167 563.2,547.21 563.78,548.19C563.967,548.497 564.043,548.827 564.01,549.18C563.79,551.46 564.08,553.34 563.24,555.45C561.627,559.49 558.977,562.683 555.29,565.03C555.278,565.038 555.267,565.047 555.256,565.057C555.17,565.141 555.164,565.279 555.245,565.361C555.255,565.372 555.267,565.382 555.28,565.39C557.767,567.11 559.79,569.28 561.35,571.9C561.537,572.22 561.65,572.563 561.69,572.93C561.79,573.923 562.207,574.773 562.94,575.48C563.197,575.725 563.32,576.079 563.27,576.43C563.023,578.023 563.197,579.557 563.79,581.03C563.923,581.357 563.94,581.69 563.84,582.03C560.333,594.117 551.983,600.16 538.79,600.16L534.9,600.09C534.547,600.083 534.257,600.22 534.03,600.5C533.477,601.187 533.17,601.953 533.11,602.8C532.83,606.667 532.06,609.883 530.8,612.45C526.72,620.743 520.783,626.52 512.99,629.78C506.03,632.7 498.12,633.767 489.26,632.98C477.993,631.987 469.157,626.827 462.75,617.5C459.23,612.373 457.623,606.78 457.93,600.72C457.95,600.373 457.787,600.207 457.44,600.22C454.58,600.32 451.78,600.357 449.04,600.33C448.22,600.317 447.073,600.077 445.6,599.61C443.93,599.08 442.47,599.42 440.88,598.66C433.513,595.167 429.1,589.337 427.64,581.17C427.573,580.797 427.637,580.45 427.83,580.13C428.223,579.47 428.25,578.777 427.91,578.05C427.775,577.748 427.753,577.407 427.85,577.09L429.21,572.72C429.303,572.42 429.493,572.203 429.78,572.07C430.327,571.81 430.62,571.38 430.66,570.78C430.693,570.36 430.86,570.007 431.16,569.72L435.56,565.55C435.827,565.29 435.797,565.067 435.47,564.88C429.543,561.467 426.827,556.587 427.32,550.24C427.747,544.673 430.15,540.403 434.53,537.43C434.61,537.375 434.681,537.309 434.742,537.234C435.091,536.804 435.029,536.165 434.603,535.819C434.527,535.757 434.441,535.707 434.35,535.67C429.54,533.68 425.58,528.61 427.68,523.37C429.04,519.98 431.32,518.73 435.11,518.79C443.697,518.917 452.213,518.85 460.66,518.59L555.65,518.55ZM464.17,550.83C499.903,550.917 523.937,550.86 536.27,550.66C538.59,550.62 541.57,549.37 542.63,547.03C545.5,540.66 539.42,536.39 533.75,536.47C518.93,536.67 506.497,536.643 496.45,536.39C483.37,536.123 470.287,536.067 457.2,536.22C454.307,536.253 452.257,536.65 451.05,537.41C445.94,540.63 446.65,549.89 453.49,550.6C454.99,550.76 458.55,550.837 464.17,550.83ZM452.56,582.32C480.267,582.467 508,582.557 535.76,582.59C539.25,582.6 542.73,580.87 543.25,577.05C543.717,573.637 542.54,571.143 539.72,569.57C538.167,568.71 535.75,568.29 532.47,568.31C519.657,568.39 506.813,568.32 493.94,568.1C481.793,568.06 469.64,568.06 457.48,568.1C454.68,568.113 452.593,568.57 451.22,569.47C448.13,571.51 446.25,576.43 448.87,579.63C449.757,580.717 450.987,581.613 452.56,582.32ZM481.95,609.16C492.79,618.97 509.27,613.69 514.27,600.37C514.37,600.103 514.277,599.97 513.99,599.97L495.61,600.1L477.51,599.92C477.09,599.913 476.9,600.12 476.94,600.54C477.22,603.733 478.89,606.607 481.95,609.16Z" style="fill:white;fill-rule:nonzero;"/>
            </g>
            <g transform="matrix(1,0,0,1,15.61,-124.8)">
                <path d="M690.79,520.86L690.51,520.75C690.415,520.712 690.353,520.62 690.353,520.518C690.353,520.42 690.411,520.33 690.5,520.29L691.12,520.01C691.813,519.697 692.08,519.91 691.92,520.65L691.64,522C691.625,522.131 691.512,522.232 691.38,522.232C691.236,522.232 691.118,522.114 691.118,521.97C691.118,521.96 691.119,521.95 691.12,521.94L691.13,521.35C691.13,521.103 691.017,520.94 690.79,520.86Z" style="fill:rgb(3,21,25);fill-opacity:0.23;fill-rule:nonzero;"/>
            </g>
            <g transform="matrix(1,0,0,1,15.61,-124.8)">
                <path d="M290.37,524.64C291.423,524.027 291.947,523.41 291.94,522.79C291.941,522.472 292.202,522.212 292.52,522.212C292.758,522.212 292.973,522.358 293.06,522.58C293.407,523.5 293.193,524.18 292.42,524.62C291.893,524.92 291.593,525.083 291.52,525.11C291.127,525.277 290.737,525.167 290.35,524.78C290.345,524.776 290.34,524.772 290.336,524.767C290.309,524.732 290.319,524.679 290.358,524.648C290.362,524.645 290.366,524.642 290.37,524.64Z" style="fill:rgb(3,21,25);fill-opacity:0.23;fill-rule:nonzero;"/>
            </g>
            <g transform="matrix(1,0,0,1,15.61,-124.8)">
                <path d="M693.12,523.09C693.107,522.723 693.44,522.533 694.12,522.52C694.193,522.519 694.266,522.535 694.333,522.566C694.577,522.679 694.687,522.968 694.576,523.207C694.545,523.275 694.499,523.334 694.44,523.38C693.18,524.407 692.023,524.42 690.97,523.42C690.283,522.767 690.4,522.553 691.32,522.78L693,523.19C693.007,523.191 693.013,523.192 693.02,523.192C693.075,523.192 693.12,523.147 693.12,523.092C693.12,523.091 693.12,523.091 693.12,523.09Z" style="fill:rgb(3,21,25);fill-opacity:0.23;fill-rule:nonzero;"/>
            </g>
            <g transform="matrix(1,0,0,1,15.61,-124.8)">
                <path d="M738.93,525.15L737.45,525.83L736.59,524.72C736.37,524.433 736.437,524.25 736.79,524.17C738.143,523.877 738.857,524.203 738.93,525.15Z" style="fill-opacity:0.01;fill-rule:nonzero;"/>
            </g>
            <g transform="matrix(1,0,0,1,15.61,-124.8)">
                <path d="M600.69,671.04C601.53,669.693 602.443,668.573 603.43,667.68C605.01,666.247 606.773,664.84 608.72,663.46C610.687,662.067 612.667,661.023 614.66,660.33C618.027,659.163 621.307,658.557 624.5,658.51C648.627,658.143 681.393,657.987 722.8,658.04C723.147,658.04 723.457,657.937 723.73,657.73C725.01,656.76 726.21,657.12 727.42,656.69C734.06,654.363 738.32,650.077 740.2,643.83C741.113,640.797 741.037,637.937 739.97,635.25C738.29,631.037 735.063,627.92 730.29,625.9C725.6,623.92 722.67,623.57 717.48,624.79C699.65,628.96 684.11,640.07 666.06,643.07C634.93,648.25 601.19,630.37 600.83,595.38C600.717,584.4 600.73,577.317 600.87,574.13C601.11,568.49 605.24,565.08 610.78,565.19C614.707,565.263 617.503,566.99 619.17,570.37C620.017,572.083 620.433,574.743 620.42,578.35C620.387,585.457 620.543,592.56 620.89,599.66C620.903,599.978 621.018,600.29 621.22,600.55C622.12,601.71 621.92,602.78 622.36,603.85C625.387,611.25 630.687,616.55 638.26,619.75C643.28,621.87 648.373,623.213 653.54,623.78C659.65,624.46 666.5,622.34 672.57,620.83C673.337,620.643 674.087,620.4 674.82,620.1C682.267,617.04 689.68,613.897 697.06,610.67C704.613,607.363 710.217,605.377 713.87,604.71C724.29,602.803 734.263,604.387 743.79,609.46C749.657,612.58 754.16,617.293 757.3,623.6C757.92,624.84 758.547,626.517 759.18,628.63C759.527,629.763 759.877,630.903 760.23,632.05C760.637,633.343 760.897,634.497 761.01,635.51C761.837,642.883 760.383,649.803 756.65,656.27C756.463,656.597 756.217,656.867 755.91,657.08L755.44,657.4C755.335,657.477 755.273,657.6 755.273,657.73C755.273,657.95 755.45,658.133 755.67,658.14C768.423,658.227 781.17,658.27 793.91,658.27C797.01,658.27 799.32,658.717 800.84,659.61C802.353,660.497 803.587,661.7 804.54,663.22C805.453,664.667 805.863,666.267 805.77,668.02C805.543,672.287 803.237,675.183 798.85,676.71C797.57,677.16 797.06,676.57 795.81,676.57C740.763,676.477 685.72,676.53 630.68,676.73C627.52,676.743 624.963,677.167 623.01,678C617.977,680.14 614.353,683.767 612.14,688.88C611.433,690.507 611.09,692.493 611.11,694.84C611.13,697.58 611.41,700.55 610.74,703.02C609.693,706.867 607.287,709.197 603.52,710.01C594.27,712.01 588.21,704.75 589.42,696.13C590.54,688.1 583.98,680.72 577.22,678.03C575.08,677.177 572.197,676.743 568.57,676.73C552.883,676.677 537.19,676.673 521.49,676.72C520.383,676.72 518.057,677.637 514.51,679.47C509.57,682.017 506.813,685.92 506.24,691.18C506.147,692.033 506.33,693.557 506.79,695.75C507.297,698.143 507.103,700.473 506.21,702.74C504.883,706.12 502.69,708.4 499.63,709.58C496.683,710.727 493.787,710.7 490.94,709.5C487.507,708.06 485.303,705.13 484.33,700.71C483.79,698.28 484.4,696.92 484.4,695.18C484.39,692.79 484.79,690.22 483.72,688.06C481.42,683.44 477.937,680.103 473.27,678.05C471.403,677.23 469.007,676.813 466.08,676.8C431.98,676.673 397.873,676.677 363.76,676.81C359.413,676.83 356.14,677.303 353.94,678.23C347.35,681 341.71,688.15 343.1,695.67C343.507,697.87 343.643,699.423 343.51,700.33C343.16,702.63 342.32,705.33 340.54,706.94C335.8,711.227 330.98,711.653 326.08,708.22C323.913,706.7 322.507,704.717 321.86,702.27C321.26,700.003 321.167,697.673 321.58,695.28C321.873,693.613 321.877,692.25 321.59,691.19C319.843,684.81 316.057,680.443 310.23,678.09C308.037,677.203 304.977,676.747 301.05,676.72C265.583,676.48 230.11,676.453 194.63,676.64C192.877,676.647 191.47,676.257 190.41,675.47C186.32,672.44 185.41,667.14 188.32,662.9C189.36,661.387 190.697,660.197 192.33,659.33C193.563,658.67 195.25,658.33 197.39,658.31C212.55,658.137 227.69,658.077 242.81,658.13C242.977,658.13 243.017,658.057 242.93,657.91C236.903,648.417 235.733,638.63 239.42,628.55C244.71,614.1 256.31,604.93 271.65,603.89C275.07,603.657 277.673,603.797 279.46,604.31C281.173,604.803 282.897,605.207 284.63,605.52C286.623,605.887 288.323,606.343 289.73,606.89C296.863,609.677 303.927,612.64 310.92,615.78C316.627,618.347 322.993,620.567 330.02,622.44C332.167,623.013 334.21,623.41 336.15,623.63C338.037,623.843 340.1,623.753 342.34,623.36C357.22,620.73 368.01,612.31 370.29,596.47C370.677,593.77 370.76,587.577 370.54,577.89C370.46,574.403 370.827,571.873 371.64,570.3C372.967,567.753 375.183,566.007 378.29,565.06C378.61,564.967 378.917,565.007 379.21,565.18C379.73,565.487 380.263,565.513 380.81,565.26C381.143,565.1 381.49,565.047 381.85,565.1C385.083,565.527 387.47,566.937 389.01,569.33C389.983,570.843 390.487,573.223 390.52,576.47C390.62,585.14 391,594.45 389.39,602.42C384.34,627.28 365.06,642.54 340.08,643.6C333.447,643.88 327.087,643.09 321,641.23C315.353,639.497 308.353,636.727 300,632.92C293.32,629.887 287.163,627.463 281.53,625.65C277.663,624.41 274.423,623.983 271.81,624.37C267.38,625.02 262.89,627.35 260.19,630.97C256.577,635.81 256.44,641.16 259.78,647.02C261.147,649.413 262.89,651.577 265.01,653.51C267.7,655.97 270.71,656.47 274.17,657.53C275.51,657.937 276.883,658.143 278.29,658.15C287.09,658.223 295.893,658.263 304.7,658.27C309.46,658.27 313.127,658.63 315.7,659.35C319.32,660.357 322.717,661.917 325.89,664.03C328.21,665.58 329.63,667.98 331.95,669.89C332.217,670.11 332.47,670.1 332.71,669.86L337.29,665.41C337.517,665.19 337.787,665.047 338.1,664.98C338.927,664.813 339.57,664.38 340.03,663.68C340.223,663.387 340.48,663.167 340.8,663.02C347.753,659.813 354.737,658.193 361.75,658.16C377.923,658.067 413.733,658.077 469.18,658.19C469.58,658.19 470.46,658.323 471.82,658.59C472.513,658.73 473.413,658.833 474.52,658.9C479.74,659.227 484.853,660.98 489.86,664.16C492.1,665.57 493.37,668.06 495.95,669.55C496.263,669.737 496.537,669.687 496.77,669.4C501.11,664.107 506.767,660.81 513.74,659.51C517.66,658.77 520.79,658.23 524.79,658.24C541.07,658.28 557.353,658.247 573.64,658.14C574.447,658.133 575.5,658.283 576.8,658.59C578.23,658.92 579.79,658.9 581.06,659.17C588.54,660.79 596,664.47 600.25,671.04C600.397,671.273 600.543,671.273 600.69,671.04Z" style="fill:white;fill-rule:nonzero;"/>
            </g>
            <g transform="matrix(1,0,0,1,15.61,-124.8)">
                <path d="M493.94,568.1L495.97,568.84C496.41,569.007 496.437,569.223 496.05,569.49C494.597,570.477 493.513,571.8 492.8,573.46C492.659,573.8 492.39,574.073 492.05,574.22C491.217,574.587 490.653,575.203 490.36,576.07C490.233,576.45 490,576.747 489.66,576.96C487.733,578.173 486.093,579.69 484.74,581.51C484.527,581.803 484.243,581.95 483.89,581.95L452.56,582.32C450.987,581.613 449.757,580.717 448.87,579.63C446.25,576.43 448.13,571.51 451.22,569.47C452.593,568.57 454.68,568.113 457.48,568.1C469.64,568.06 481.793,568.06 493.94,568.1Z" style="fill-opacity:0.01;fill-rule:nonzero;"/>
            </g>
            <g transform="matrix(1,0,0,1,15.61,-124.8)">
                <circle cx="190.48" cy="587.67" r="16.25" style="fill:white;"/>
            </g>
            <g transform="matrix(1,0,0,1,15.61,-124.8)">
                <circle cx="802.19" cy="587.59" r="16.29" style="fill:white;"/>
            </g>
            <g transform="matrix(1,0,0,1,15.61,-124.8)">
                <circle cx="333.79" cy="586.61" r="10.84" style="fill:white;"/>
            </g>
            <g transform="matrix(1,0,0,1,15.61,-124.8)">
                <circle cx="658.07" cy="586.68" r="11.01" style="fill:white;"/>
            </g>
            <g transform="matrix(1,0,0,1,15.61,-124.8)">
                <path d="M495.61,600.1C491.697,604.58 487.143,607.6 481.95,609.16C478.89,606.607 477.22,603.733 476.94,600.54C476.9,600.12 477.09,599.913 477.51,599.92L495.61,600.1Z" style="fill-opacity:0.01;fill-rule:nonzero;"/>
            </g>
            <g transform="matrix(1,0,0,1,15.61,-124.8)">
                <path d="M538.79,600.16C535.897,600.453 534.003,601.333 533.11,602.8C533.17,601.953 533.477,601.187 534.03,600.5C534.257,600.22 534.547,600.083 534.9,600.09L538.79,600.16Z" style="fill:rgb(3,21,25);fill-opacity:0.23;fill-rule:nonzero;"/>
            </g>
            <g transform="matrix(1,0,0,1,15.61,-124.8)">
                <circle cx="153.13" cy="668.76" r="8.21" style="fill:white;"/>
            </g>
            <g transform="matrix(0.734915,-0.67816,0.67816,0.734915,853.73,544.05)">
                <ellipse cx="0" cy="0" rx="8.36" ry="8.08" style="fill:white;"/>
            </g>
            <g transform="matrix(1,0,0,1,43.4487,-130.133)">
                <path d="M427.63,799.13C429.463,798.437 430.787,797.5 431.6,796.32C433.86,793.06 428.54,790.69 426.5,790.06C414.71,786.38 401.84,783.91 400.17,769.43C399.743,765.69 400.293,761.957 401.82,758.23C403.3,754.623 405.447,751.393 408.26,748.54C409.187,747.6 410.423,746.647 411.97,745.68C413.7,744.6 415.52,743.28 417.44,742.71C421.993,741.363 426.657,740.787 431.43,740.98C432.05,741 433.097,741.19 434.57,741.55C435.73,741.83 436.937,741.94 438.19,741.88C438.452,741.874 438.699,741.976 438.87,742.16C439.557,742.887 440.383,743.12 441.35,742.86C441.497,742.82 441.6,742.87 441.66,743.01L441.82,743.39C441.887,743.557 442.003,743.673 442.17,743.74C447.79,745.96 455,751.34 450.08,758.31C448.84,760.057 448.197,760.967 448.15,761.04C447.183,762.593 446.163,763.877 445.09,764.89C444.104,765.815 442.615,765.975 441.46,765.28C438.1,763.26 433.24,760.3 429.6,760.15C426.52,760.03 422.2,761.94 422.19,765.58C422.183,767.213 422.947,768.363 424.48,769.03C430.58,771.68 440.88,773.58 446.39,777.82C458.15,786.89 454.61,804.97 443.89,813.61C433.43,822.04 415.74,821 405.33,812.93C398.9,807.94 395.16,800.15 403.12,794.17C405.58,792.32 409.33,792.21 411.87,793.93C414.93,795.99 418.31,798.5 421.77,799.26C424.103,799.767 426.057,799.723 427.63,799.13Z" style="fill:white;fill-rule:nonzero;"/>
            </g>
            <g transform="matrix(1,0,0,1,43.4487,-130.133)">
                <path d="M268.535,766.623C275.857,786.959 264.82,809.836 244.086,817.301C244.086,817.301 244.086,817.301 244.086,817.301C223.352,824.765 200.266,814.174 192.945,793.837C192.945,793.837 192.945,793.837 192.945,793.837C185.623,773.501 196.66,750.624 217.394,743.159C217.394,743.159 217.394,743.159 217.394,743.159C238.128,735.695 261.214,746.286 268.535,766.623C268.535,766.623 268.535,766.623 268.535,766.623ZM250.11,780.05C250.11,769.517 241.443,760.85 230.91,760.85C220.377,760.85 211.71,769.517 211.71,780.05C211.71,790.583 220.377,799.25 230.91,799.25C241.443,799.25 250.11,790.583 250.11,780.05Z" style="fill:white;fill-rule:nonzero;"/>
            </g>
            <g transform="matrix(1,0,0,1,43.4487,-130.133)">
                <path d="M538.41,789.51L538.4,798.03C538.4,798.463 538.613,798.683 539.04,798.69C546.387,798.81 553.707,798.817 561,798.71C562.733,798.69 564.153,799.043 565.26,799.77C569.053,802.277 570.47,806.027 569.51,811.02C569.443,811.34 569.297,811.62 569.07,811.86C568.683,812.267 568.553,812.75 568.68,813.31C568.747,813.637 568.687,813.937 568.5,814.21C566.46,817.23 564.26,819.04 560.31,819.04L522.81,819.04C522.497,819.04 522.185,818.95 521.91,818.78C518.73,816.82 517.27,814.51 517.24,810.55C517.107,790.277 517.187,770.01 517.48,749.75C517.55,744.31 520.05,741.66 525.38,741.74C537.48,741.92 549.577,741.88 561.67,741.62C563.25,741.587 564.53,741.94 565.51,742.68C568.657,745.053 569.967,748.57 569.44,753.23C568.84,758.51 566.21,761.3 560.76,761.33C553.54,761.363 546.317,761.357 539.09,761.31C538.67,761.31 538.457,761.52 538.45,761.94L538.41,769.81C538.41,770.25 538.627,770.46 539.06,770.44C543.867,770.227 548.633,770.177 553.36,770.29C556.033,770.35 558.15,770.847 559.71,771.78C563.423,774 564.837,777.31 563.95,781.71C563.537,783.763 562.703,785.41 561.45,786.65C559.44,788.64 557.34,789.39 554.33,789.22C549.163,788.94 544.01,788.88 538.87,789.04C538.563,789.047 538.41,789.203 538.41,789.51Z" style="fill:white;fill-rule:nonzero;"/>
            </g>
            <g transform="matrix(1,0,0,1,43.4487,-130.133)">
                <path d="M118.76,748.34C118.765,744.602 121.842,741.53 125.58,741.53C125.583,741.53 125.587,741.53 125.59,741.53L146.99,741.57C168.187,741.609 185.598,758.736 185.56,779.51L185.56,781.37C185.522,802.144 168.05,819.207 146.854,819.17C146.853,819.17 146.851,819.17 146.85,819.17L125.45,819.13C121.712,819.125 118.64,816.048 118.64,812.31C118.64,812.307 118.64,812.303 118.64,812.3L118.76,748.34ZM138.99,762.44L138.93,798C138.93,798.417 139.273,798.76 139.69,798.76L144.83,798.77C156.196,798.789 165.562,790.527 165.58,780.466C165.58,780.464 165.58,780.462 165.58,780.46L165.58,780.06C165.594,770.001 156.255,761.709 144.89,761.69L139.75,761.68C139.333,761.68 138.99,762.023 138.99,762.44Z" style="fill:white;fill-rule:nonzero;"/>
            </g>
            <g transform="matrix(1,0,0,1,43.4487,-130.133)">
                <path d="M324.43,791.14C324.305,791.135 324.184,791.157 324.073,791.204C323.563,791.421 323.367,792.127 323.639,792.768C323.698,792.907 323.776,793.036 323.87,793.15C327.35,797.357 330.473,801.397 333.24,805.27C335.007,807.757 336.03,809.84 336.31,811.52C336.81,814.553 335.767,816.893 333.18,818.54C330.41,820.3 326.79,819.87 323.48,819.56C322.12,819.427 320.927,818.947 319.9,818.12C317.54,816.22 315.447,814.053 313.62,811.62C309.853,806.613 306.247,801.5 302.8,796.28C302.613,795.993 302.347,795.847 302,795.84L298.53,795.82C298.15,795.82 297.963,796.01 297.97,796.39C298.037,800.423 298.033,804.44 297.96,808.44C297.85,814.43 296.4,818.43 290.22,819.46C277.78,821.55 277.2,813.22 277.36,803.44C277.673,784.72 277.847,765.99 277.88,747.25C277.88,745.177 278.687,743.66 280.3,742.7C281.26,742.127 282.783,741.843 284.87,741.85C293.33,741.89 301.79,741.91 310.25,741.91C310.617,741.91 310.903,742.06 311.11,742.36C311.39,742.767 311.747,742.863 312.18,742.65C312.48,742.503 312.793,742.46 313.12,742.52C315.633,743.007 318.017,743.837 320.27,745.01C332.25,751.263 337.437,760.843 335.83,773.75C335.41,777.117 334.363,780.123 332.69,782.77C330.963,785.517 328.837,787.973 326.31,790.14C325.523,790.82 324.897,791.153 324.43,791.14ZM298.2,762.95L298.28,776.77C298.28,777.379 298.781,777.88 299.39,777.88L306.22,777.84C311.198,777.815 315.278,774.227 315.26,769.89L315.26,769.67C315.26,769.667 315.26,769.665 315.26,769.662C315.237,765.324 311.121,761.775 306.14,761.8L299.31,761.84C298.701,761.84 298.2,762.341 298.2,762.95Z" style="fill:white;fill-rule:nonzero;"/>
            </g>
            <g transform="matrix(1,0,0,1,43.4487,-130.133)">
                <path d="M345.71,810.45L345.85,789.7C345.797,776.267 345.83,762.827 345.95,749.38C345.97,747.4 346.33,745.903 347.03,744.89C348.43,742.88 350.04,741.97 352.63,741.96C364.37,741.933 376.107,741.89 387.84,741.83C389.86,741.817 391.51,742.207 392.79,743C398.72,746.65 398.54,754.71 393.61,758.94C391.703,760.567 389.34,761.37 386.52,761.35C377.2,761.27 370.573,761.24 366.64,761.26C366.364,761.26 366.135,761.484 366.13,761.76L366.12,769.75C366.12,770.321 366.589,770.79 367.16,770.79C372.407,770.817 377.663,770.85 382.93,770.89C385.49,770.917 387.44,771.37 388.78,772.25C391.613,774.097 392.907,776.983 392.66,780.91C392.433,784.443 391.03,786.953 388.45,788.44C386.95,789.307 384.393,789.757 380.78,789.79C376.08,789.837 371.367,789.853 366.64,789.84C366.267,789.84 366.077,790.027 366.07,790.4C365.99,797.173 365.967,803.91 366,810.61C366.013,812.303 365.653,813.747 364.92,814.94C363.647,817.02 362.25,818.387 360.73,819.04C358.87,819.84 356.54,820.073 353.74,819.74C351.04,819.42 349.09,818.55 347.89,817.13C346.51,815.497 345.783,813.27 345.71,810.45Z" style="fill:white;fill-rule:nonzero;"/>
            </g>
            <g transform="matrix(1,0,0,1,43.4487,-130.133)">
                <path d="M494.06,762.57C494.02,778.97 494.013,795.373 494.04,811.78C494.04,812.94 493.83,813.873 493.41,814.58C493.057,815.167 492.63,815.69 492.13,816.15C490.45,817.71 490.04,819.4 487.27,819.39C486.93,819.39 486.62,819.487 486.34,819.68C485.72,820.113 485.083,820.113 484.43,819.68C484.123,819.48 483.813,819.473 483.5,819.66L483.07,819.92C482.71,820.133 482.363,820.117 482.03,819.87C481.497,819.477 480.943,819.387 480.37,819.6C480.077,819.713 479.787,819.71 479.5,819.59C475.493,817.937 473.497,815.24 473.51,811.5C473.583,795.08 473.557,778.703 473.43,762.37C473.425,762.065 473.175,761.815 472.87,761.81C468.743,761.777 464.617,761.787 460.49,761.84C457.22,761.87 457.1,759.59 455.23,757.89C454.983,757.663 454.81,757.393 454.71,757.08C452.39,750.09 453.98,741.81 462.88,741.79C476.873,741.77 490.863,741.78 504.85,741.82C507.023,741.827 508.693,742.203 509.86,742.95C514.52,745.96 514.46,757.5 509.54,760.91C508.467,761.657 507.013,762.017 505.18,761.99C501.653,761.943 498.13,761.95 494.61,762.01C494.243,762.017 494.06,762.203 494.06,762.57Z" style="fill:white;fill-rule:nonzero;"/>
            </g>
            <g transform="matrix(1,0,0,1,43.4487,-130.133)">
                <path d="M611.05,762.73C610.99,777.59 610.94,792.447 610.9,807.3C610.887,811.067 610.4,813.773 609.44,815.42C607.727,818.36 604.87,819.767 600.87,819.64C599.48,819.6 597.7,820.04 596.26,819.5C593.793,818.58 592.04,817.05 591,814.91C590.367,813.61 590.037,811.453 590.01,808.44C589.89,793.14 589.977,777.843 590.27,762.55C590.277,762.21 590.11,762.033 589.77,762.02C585.257,761.867 582.323,761.853 580.97,761.98C577.81,762.28 575.89,761.57 574.2,758.78C571.36,754.06 571.3,746.53 576.15,742.96C577.217,742.167 578.633,741.77 580.4,741.77C593.707,741.777 607.02,741.777 620.34,741.77C622.747,741.77 624.59,742.197 625.87,743.05C632.2,747.29 630.94,756.86 625.73,761.37C625.417,761.637 625.05,761.777 624.63,761.79L611.62,762.15C611.304,762.161 611.05,762.419 611.05,762.73Z" style="fill:white;fill-rule:nonzero;"/>
            </g>
            <g transform="matrix(1,0,0,1,43.4487,-130.133)">
                <path d="M677.89,763.56C678.01,779.5 678.037,795.44 677.97,811.38C677.95,814.64 677.04,816.16 674.98,818.34C674.273,819.08 673.407,819.637 672.38,820.01C665.57,822.45 657.23,820.63 657.28,811.82C657.373,796.027 657.437,780.057 657.47,763.91C657.47,763.393 657.047,762.965 656.53,762.96C652.897,762.94 649.163,762.94 645.33,762.96C641.99,762.98 640.11,761.03 638.82,758.29C637.77,756.08 637.5,750.77 638.31,748.32C638.897,746.533 639.92,745.09 641.38,743.99C642.46,743.17 643.987,742.76 645.96,742.76C660.127,742.78 674.297,742.737 688.47,742.63C689.717,742.617 690.823,742.91 691.79,743.51C693.15,744.35 694.53,745.08 695.29,746.56C697.61,751.1 697.373,755.613 694.58,760.1C693.37,762.04 691.91,763.02 689.46,762.99C685.78,762.943 682.097,762.953 678.41,763.02C678.057,763.027 677.883,763.207 677.89,763.56Z" style="fill:white;fill-rule:nonzero;"/>
            </g>
            <g transform="matrix(1,0,0,1,43.4487,-130.133)">
                <path d="M722.24,790.52L722.19,799.01C722.19,799.01 722.19,799.01 722.19,799.01C722.19,799.449 722.551,799.81 722.99,799.81C722.993,799.81 722.997,799.81 723,799.81C730.72,799.737 738.307,799.697 745.76,799.69C747.753,799.69 749.317,800.1 750.45,800.92C754.21,803.64 754.86,811.1 752.97,815.18C751.43,818.54 748.96,820.09 745.07,820.06C733.083,819.993 721.097,819.993 709.11,820.06C706.917,820.073 705.287,819.653 704.22,818.8C702.32,817.273 701.35,814.92 701.31,811.74C700.99,787.113 700.967,766.783 701.24,750.75C701.33,745.63 704.58,742.8 709.67,742.79C721.37,742.77 733.057,742.74 744.73,742.7C747.117,742.693 748.967,743.113 750.28,743.96C752.607,745.46 753.893,747.617 754.14,750.43C754.76,757.5 752.58,762.42 744.79,762.46C737.463,762.5 730.13,762.497 722.79,762.45C722.788,762.45 722.787,762.45 722.785,762.45C722.478,762.453 722.227,762.703 722.23,763.005C722.23,763.007 722.23,763.008 722.23,763.01L722.29,770.46C722.295,770.824 722.601,771.12 722.97,771.12C728.703,771.06 734.377,771.073 739.99,771.16C748.26,771.29 750.47,781.6 746.28,787.39C745.3,788.75 742.54,790.03 740.86,790.03C734.82,790.03 728.773,790.033 722.72,790.04C722.4,790.04 722.24,790.2 722.24,790.52Z" style="fill:white;fill-rule:nonzero;"/>
            </g>
            <g transform="matrix(1,0,0,1,43.4487,-130.133)">
                <path d="M805.61,793.66C808.903,798.393 812.28,803.08 815.74,807.72C817.293,809.8 818.17,811.387 818.37,812.48C818.85,815.2 817.43,817.83 814.87,819.07C807.59,822.61 801.477,820.987 796.53,814.2C792.77,809.053 789.043,803.863 785.35,798.63C785.17,798.377 785.057,798.097 785.01,797.79L784.93,797.3C784.896,797.1 784.723,796.952 784.52,796.95L779.74,796.95C779.36,796.95 779.173,797.14 779.18,797.52C779.34,806.267 779.313,811.85 779.1,814.27C778.64,819.64 770.99,821.42 766.21,820.71C760.85,819.92 759.26,815.63 759.23,810.47C759.103,790.07 759.073,769.663 759.14,749.25C759.153,746.93 760.093,745.18 761.96,744C763.12,743.273 764.883,742.907 767.25,742.9C775.13,742.88 783.007,742.867 790.88,742.86C793.647,742.86 795.967,743.167 797.84,743.78C808.73,747.34 816.59,755.67 817.87,766.81C818.95,776.19 815.44,784.87 808.5,791.19C807.68,791.937 806.77,792.557 805.77,793.05C805.483,793.197 805.43,793.4 805.61,793.66ZM779.62,763.83L779.5,777.41C779.5,777.413 779.5,777.417 779.5,777.42C779.5,777.948 779.932,778.385 780.46,778.39L789.07,778.47C789.071,778.47 789.072,778.47 789.073,778.47C793.55,778.509 797.263,775.074 797.3,770.862C797.3,770.861 797.3,770.861 797.3,770.86L797.3,770.7C797.336,766.488 793.685,762.99 789.21,762.95L780.6,762.87C780.597,762.87 780.593,762.87 780.59,762.87C780.062,762.87 779.625,763.302 779.62,763.83Z" style="fill:white;fill-rule:nonzero;"/>
            </g>
            <g transform="matrix(1,0,0,1,43.4487,-130.133)">
                <circle cx="230.91" cy="780.05" r="19.2" style="fill:white;fill-opacity:0.01;"/>
            </g>
            <g transform="matrix(1,0,0,1,43.4487,-130.133)">
                <path d="M138.99,762.44C138.99,762.023 139.333,761.68 139.75,761.68L144.89,761.69C156.255,761.709 165.594,770.001 165.58,780.06L165.58,780.46C165.58,780.462 165.58,780.464 165.58,780.466C165.562,790.527 156.196,798.789 144.83,798.77L139.69,798.76C139.273,798.76 138.93,798.417 138.93,798L138.99,762.44Z" style="fill:white;fill-opacity:0.01;fill-rule:nonzero;"/>
            </g>
            <g transform="matrix(1,0,0,1,43.4487,-130.133)">
                <path d="M298.2,762.95C298.2,762.341 298.701,761.84 299.31,761.84L306.14,761.8C311.121,761.775 315.237,765.324 315.26,769.662C315.26,769.665 315.26,769.667 315.26,769.67L315.26,769.89C315.278,774.227 311.198,777.815 306.22,777.84L299.39,777.88C298.781,777.88 298.28,777.379 298.28,776.77L298.2,762.95Z" style="fill:white;fill-opacity:0.01;fill-rule:nonzero;"/>
            </g>
            <g transform="matrix(1,0,0,1,43.4487,-130.133)">
                <path d="M779.62,763.83C779.625,763.302 780.062,762.87 780.59,762.87C780.593,762.87 780.597,762.87 780.6,762.87L789.21,762.95C793.685,762.99 797.336,766.488 797.3,770.7L797.3,770.86C797.3,770.861 797.3,770.861 797.3,770.862C797.263,775.074 793.55,778.509 789.073,778.47C789.072,778.47 789.071,778.47 789.07,778.47L780.46,778.39C779.932,778.385 779.5,777.948 779.5,777.42C779.5,777.417 779.5,777.413 779.5,777.41L779.62,763.83Z" style="fill:white;fill-opacity:0.01;fill-rule:nonzero;"/>
            </g>
            <g transform="matrix(1,0,0,1,43.4487,-130.133)">
                <path d="M345.85,789.7L345.71,810.45C345.243,803.643 345.29,796.727 345.85,789.7Z" style="fill:white;fill-opacity:0.23;fill-rule:nonzero;"/>
            </g>
            <g transform="matrix(1,0,0,1,19.6706,-113.067)">
                <path d="M476.96,856.03C481.493,848.603 487.84,844.847 496,844.76C502.387,844.693 508.003,847.177 512.85,852.21C513.68,853.07 514.61,854.98 515.81,856.05C516.07,856.283 516.38,856.4 516.74,856.4C572,856.58 627.26,856.61 682.52,856.49C686.46,856.48 690.32,858.41 691.49,862.26C693.103,867.553 691.747,871.5 687.42,874.1C686.1,874.9 684.39,875.303 682.29,875.31C627.943,875.463 573.597,875.54 519.25,875.54C518.09,875.547 517.1,876.13 516.28,877.29C513.613,881.07 510.287,884.133 506.3,886.48C499.867,890.26 493.43,890.683 486.99,887.75C481.817,885.397 477.737,881.413 474.75,875.8C474.583,875.487 474.323,875.33 473.97,875.33C416.123,875.457 358.283,875.467 300.45,875.36C298.723,875.353 297.307,874.97 296.2,874.21C290.34,870.17 290.59,861.41 296.54,857.69C297.773,856.923 299.34,856.54 301.24,856.54C359.56,856.593 417.88,856.567 476.2,856.46C476.533,856.46 476.787,856.317 476.96,856.03Z" style="fill:white;fill-rule:nonzero;"/>
                <g transform="matrix(-0.130526,0.991445,-0.991445,-0.130526,217.83,865.85)">
                    <ellipse cx="0" cy="0" rx="8.89" ry="8.38" style="fill:white;"/>
                </g>
                <g transform="matrix(-0.177085,0.984196,-0.984196,-0.177085,259.11,865.93)">
                    <ellipse cx="0" cy="0" rx="8.82" ry="8.33" style="fill:white;"/>
                </g>
                <g transform="matrix(0.738455,-0.674302,0.674302,0.738455,725.81,865.71)">
                    <ellipse cx="0" cy="0" rx="8.86" ry="8.61" style="fill:white;"/>
                </g>
                <g transform="matrix(-0.168489,0.985703,-0.985703,-0.168489,766.87,865.69)">
                    <ellipse cx="0" cy="0" rx="8.6" ry="8.34" style="fill:white;"/>
                </g>
            </g>
        </g>
    </g>
</svg>
