<?xml version="1.0" encoding="UTF-8" standalone="no"?>
<!DOCTYPE svg PUBLIC "-//W3C//DTD SVG 1.1//EN" "http://www.w3.org/Graphics/SVG/1.1/DTD/svg11.dtd">
<svg width="100%" height="100%" viewBox="0 0 726 487" version="1.1" xmlns="http://www.w3.org/2000/svg" xmlns:xlink="http://www.w3.org/1999/xlink" xml:space="preserve" xmlns:serif="http://www.serif.com/" style="fill-rule:evenodd;clip-rule:evenodd;stroke-linejoin:round;stroke-miterlimit:2;">
    <g transform="matrix(1,0,0,1,-149.31,-144.72)">
        <g transform="matrix(1,0,0,1,16.3437,-18.8491)">
            <path d="M554.72,504.75L502.09,504.77C479.823,504.737 457.873,504.69 436.24,504.63C431.4,504.62 430.35,500.89 430.34,496.6C430.32,487.307 430.287,478.017 430.24,468.73C430.24,467.48 429.62,466.57 429.53,465.39C428.13,445.463 422.537,427.017 412.75,410.05C405.04,396.67 391.37,380.7 384.09,369.92C369.463,348.28 361.993,324.14 361.68,297.5C361.04,243.01 397.29,191.05 448.02,172.23C448.693,171.977 449.183,171.747 449.49,171.54C449.763,171.353 450.06,171.223 450.38,171.15C454.027,170.317 457.573,169.163 461.02,167.69C461.247,167.59 461.563,167.627 461.97,167.8C462.277,167.933 462.583,167.927 462.89,167.78C465.13,166.687 467.48,165.963 469.94,165.61C469.98,165.603 470.703,165.613 472.11,165.64C473.67,165.66 474.22,164.79 475.66,164.64C483.1,163.827 491.213,163.477 500,163.59C508.813,163.697 517.307,164.777 525.48,166.83C531.253,168.283 537.577,170.383 544.45,173.13C561.103,179.777 576.057,189.293 589.31,201.68C590.87,203.14 593.547,206.127 597.34,210.64C613.333,229.653 623.52,251.22 627.9,275.34C629.087,281.887 629.667,288.517 629.64,295.23C629.533,322.89 621.73,348.073 606.23,370.78C601.01,378.42 592.18,388.74 586.01,397.48C572.457,416.693 564.413,438.19 561.88,461.97C561.66,463.99 560.73,466.41 560.73,468C560.777,477.567 560.77,487.13 560.71,496.69C560.68,500.87 559.18,504.5 554.72,504.75ZM481.84,183.43C480.787,184.11 479.56,184.51 478.16,184.63C475.993,184.817 474.743,184.947 474.41,185.02C460.557,188.013 448.38,192.717 437.88,199.13C409.25,216.61 388.21,246.44 383.25,280.07C382.157,287.463 381.63,294.913 381.67,302.42C381.683,304.527 381.88,306.73 382.26,309.03C383.18,314.58 384.08,320.15 385.65,325.28C390.27,340.433 397.383,354.363 406.99,367.07C410.377,371.55 413.79,376.013 417.23,380.46C421.87,386.44 425.177,390.977 427.15,394.07C435.637,407.37 441.893,421.943 445.92,437.79C448.787,449.05 450.517,459.83 451.11,470.13L451.03,486.78C451.03,486.782 451.03,486.784 451.03,486.785C451.027,487.142 451.323,487.437 451.685,487.44C451.687,487.44 451.688,487.44 451.69,487.44L467.81,487.34C468.29,487.333 468.527,487.09 468.52,486.61L468.31,467.41C468.07,460.6 467.99,454.03 467.08,447.25C464.013,424.45 461.493,406.953 459.52,394.76C458.9,390.947 458.513,388.3 458.36,386.82C458.32,386.46 458.17,386.157 457.91,385.91C457.497,385.517 457.433,385.05 457.72,384.51C457.914,384.166 457.848,383.73 457.56,383.46C456.847,382.787 456.69,381.98 457.09,381.04C457.207,380.761 457.116,380.434 456.87,380.25C456.53,380.003 456.35,379.7 456.33,379.34C456.31,378.82 456.297,378.54 456.29,378.5C453.303,364.227 449.107,350.343 443.7,336.85C440.26,328.25 438.333,322.84 437.92,320.62C435.827,309.4 439.293,299.707 448.32,291.54C449.067,290.867 451.083,289.657 454.37,287.91C454.657,287.763 454.957,287.717 455.27,287.77C456.057,287.903 456.67,287.663 457.11,287.05C457.326,286.757 457.701,286.632 458.04,286.74C458.867,287 459.567,286.833 460.14,286.24C460.4,285.973 460.72,285.837 461.1,285.83C464.827,285.797 468.553,285.757 472.28,285.71C472.447,285.71 472.583,285.75 472.69,285.83C472.823,285.923 472.94,286.043 473.04,286.19C473.211,286.444 473.486,286.609 473.79,286.64C475.97,286.873 477.447,287.16 478.22,287.5C482.813,289.533 486.827,292.353 490.26,295.96C492.58,298.4 493.88,301.58 495.12,304.69C495.226,304.962 495.49,305.141 495.781,305.141C496.081,305.141 496.349,304.952 496.45,304.67C497.897,300.697 499.983,297.183 502.71,294.13C504.81,291.77 507.2,289.897 509.88,288.51C512.693,287.05 515.643,286.127 518.73,285.74C522.677,285.24 526.88,285.313 531.34,285.96C531.68,286.013 531.96,286.173 532.18,286.44C532.367,286.673 532.59,286.74 532.85,286.64C533.103,286.547 533.357,286.55 533.61,286.65C538.403,288.623 541.35,290.097 542.45,291.07C551.183,298.817 554.873,307.967 553.52,318.52C553.16,321.293 551.45,326.68 548.39,334.68C538.65,360.12 531.857,386.813 528.01,414.76C526.517,425.613 525.547,432.947 525.1,436.76C524.93,438.28 525.41,440.17 524.53,441.94C524.377,442.24 524.3,442.557 524.3,442.89L524.27,446.1C524.12,448.99 523.01,451.35 523,454C522.96,464.887 522.96,475.803 523,486.75C523,487.103 523.177,487.28 523.53,487.28L539.72,487.29C540.126,487.29 540.46,486.956 540.46,486.55C540.46,486.543 540.46,486.537 540.46,486.53C540.36,480.803 540.347,475.143 540.42,469.55C540.5,463.603 541.01,458.02 541.95,452.8C544.497,438.653 548.16,426.05 552.94,414.99C558,403.27 564.483,392.4 572.39,382.38C579.697,373.113 584.357,367.117 586.37,364.39C601.29,344.24 609.82,319.74 609.31,294.65C609.183,288.397 608.623,282.353 607.63,276.52C605.77,265.62 602.023,255.143 596.39,245.09C593.083,239.177 589.943,234.08 586.97,229.8C584.037,225.587 580.67,221.613 576.87,217.88C573.517,214.587 569.6,211.183 565.12,207.67C552.46,197.757 538.293,190.723 522.62,186.57C518.52,185.48 513.54,185.06 509.05,184.23C505.037,183.49 501.637,183.093 498.85,183.04C493.083,182.927 487.413,183.057 481.84,183.43ZM526.024,325.124C526.024,325.124 526.024,325.124 526.024,325.124C531.221,324.029 534.56,318.684 533.422,313.284C533.422,313.284 533.422,313.284 533.422,313.284C532.284,307.884 527.072,304.341 521.876,305.436C521.876,305.436 521.876,305.436 521.876,305.436C516.679,306.531 513.34,311.876 514.478,317.276C514.478,317.276 514.478,317.276 514.478,317.276C515.616,322.676 520.828,326.219 526.024,325.124ZM477.03,315.38C477.03,310.004 472.606,305.58 467.23,305.58C461.854,305.58 457.43,310.004 457.43,315.38C457.43,320.756 461.854,325.18 467.23,325.18C472.606,325.18 477.03,320.756 477.03,315.38ZM494.9,325.1C490.373,337.367 481.587,343.897 468.54,344.69C468.53,344.691 468.52,344.692 468.511,344.694C468.338,344.726 468.221,344.889 468.252,345.057C468.254,345.068 468.257,345.079 468.26,345.09C473.84,364.09 478.317,383.123 481.69,402.19C483.75,413.81 485.2,427.77 486.99,440.58C487.923,447.193 488.47,453.337 488.63,459.01C488.89,468.177 489,477.357 488.96,486.55C488.953,486.917 489.133,487.1 489.5,487.1L502.51,487.08C502.823,487.08 503.08,486.823 503.08,486.51C503.08,486.507 503.08,486.503 503.08,486.5C502.8,477.407 502.733,468.32 502.88,459.24C502.98,453.167 503.487,446.53 504.4,439.33C506.16,425.5 507.56,410.86 509.98,397.9C512.62,383.753 515.877,369.743 519.75,355.87C520.743,352.303 521.933,348.893 523.32,345.64C523.366,345.532 523.389,345.417 523.389,345.3C523.389,344.823 522.997,344.43 522.519,344.43C522.513,344.43 522.506,344.43 522.5,344.43C509.08,344.67 500.65,336.05 495.67,324.6C495.628,324.496 495.544,324.404 495.437,324.344C495.212,324.217 494.943,324.262 494.84,324.444C494.79,324.533 494.786,324.643 494.83,324.75L494.91,325C494.923,325.027 494.92,325.06 494.9,325.1Z" style="fill:black;fill-rule:nonzero;"/>
        </g>
        <g transform="matrix(0.999048,-0.0436194,0.0436194,0.999048,350.14,178.714)">
            <ellipse cx="0" cy="0" rx="16.01" ry="15.73" style="fill:black;"/>
        </g>
        <g transform="matrix(1,0,0,1,15.61,-22.1259)">
            <path d="M671.85,206.19C670.79,208.75 669.133,210.88 666.88,212.58C660.127,217.673 653.313,217.757 646.44,212.83C645.307,212.017 644.207,210.617 643.14,208.63C642.987,208.35 642.91,208.047 642.91,207.72C642.917,207.033 642.66,206.467 642.14,206.02C641.887,205.8 641.727,205.523 641.66,205.19C640.053,196.71 642.553,190.71 649.16,187.19C655.45,183.85 663.44,185.01 668.46,190.08C672.087,193.747 673.577,197.807 672.93,202.26C672.731,203.608 672.368,204.928 671.85,206.19Z" style="fill:black;fill-rule:nonzero;"/>
        </g>
        <g transform="matrix(1,0,0,1,15.61,-22.1259)">
            <path d="M238.05,252.61C238.35,252.27 238.72,252.18 239.16,252.34C239.46,252.453 239.77,252.48 240.09,252.42C244.197,251.66 247.877,252.167 251.13,253.94C254.01,255.507 256.333,257.973 258.1,261.34C261.56,267.927 260.253,274.197 254.18,280.15C247.38,286.83 235.51,285.72 229.72,278.26C227.38,275.253 226.31,271.683 226.51,267.55C226.79,261.583 229.83,256.857 235.63,253.37C236.13,253.07 236.633,252.94 237.14,252.98C237.5,253.013 237.803,252.89 238.05,252.61Z" style="fill:black;fill-rule:nonzero;"/>
        </g>
        <g transform="matrix(1,0,0,1,15.61,-22.1259)">
            <circle cx="749.46" cy="268.29" r="16.29" style="fill:black;"/>
        </g>
        <g transform="matrix(1,0,0,1,15.61,-22.1259)">
            <circle cx="315.08" cy="270.48" r="10.41" style="fill:black;"/>
        </g>
        <g transform="matrix(-0.328867,0.944376,-0.944376,-0.328867,692.55,248.334)">
            <ellipse cx="0" cy="0" rx="10.6" ry="10.1" style="fill:black;"/>
        </g>
        <g transform="matrix(1,0,0,1,15.61,-22.1259)">
            <path d="M582.77,298.97C582.791,299.013 582.803,299.061 582.805,299.109C582.812,299.301 582.655,299.465 582.457,299.471C582.411,299.473 582.364,299.466 582.32,299.45C581.693,299.21 581.5,298.78 581.74,298.16C581.793,298.028 581.922,297.941 582.064,297.941C582.199,297.941 582.322,298.019 582.38,298.14L582.77,298.97Z" style="fill:rgb(3,21,25);fill-opacity:0.23;fill-rule:nonzero;"/>
        </g>
        <g transform="matrix(0.206204,0.978509,-0.978509,0.206204,539.56,293.154)">
            <ellipse cx="0" cy="0" rx="10.06" ry="9.68" style="fill-opacity:0.01;"/>
        </g>
        <g transform="matrix(1,0,0,1,15.61,-22.1259)">
            <circle cx="467.23" cy="315.38" r="9.8" style="fill-opacity:0.01;"/>
        </g>
        <g transform="matrix(0.477159,0.878817,-0.878817,0.477159,596.98,285.804)">
            <ellipse cx="0" cy="0" rx="0.98" ry="0.69" style="fill:rgb(3,21,25);fill-opacity:0.23;"/>
        </g>
        <g transform="matrix(1,0,0,1,10.1487,-15.718)">
            <path d="M298.47,527.15C299.897,526.657 302.077,526.133 305.01,525.58C311.61,524.327 318.6,521.387 325.98,516.76C326.887,516.193 327.69,515.55 328.39,514.83C328.59,514.623 328.59,514.417 328.39,514.21L290.64,476C290.393,475.753 290.1,475.667 289.76,475.74L285,476.8C277.78,477.82 271.777,477.96 266.99,477.22C250.85,474.707 238.787,466.297 230.8,451.99C228.753,448.31 227.283,444.7 226.39,441.16C226.31,440.833 226.32,440.51 226.42,440.19C226.58,439.67 226.46,439.313 226.06,439.12C225.707,438.96 225.59,438.693 225.71,438.32C225.97,437.52 225.913,436.743 225.54,435.99C225.427,435.75 225.37,435.5 225.37,435.24L225.28,427.54C225.273,427.247 225.177,426.987 224.99,426.76C218.043,418.393 214.82,408.72 215.32,397.74C215.593,391.76 216.813,386.01 218.98,380.49C221.35,374.44 223.74,370 228.35,365.82C231.14,363.29 232.64,365.45 234.07,367.94C238.99,376.53 247.99,380.04 257.48,382.2C258.75,382.49 260.81,382.12 262.26,383.29C262.527,383.503 262.83,383.59 263.17,383.55C269.637,382.803 276.13,382.62 282.65,383C282.75,383.007 282.84,383.043 282.92,383.11L283.18,383.32C283.22,383.36 283.27,383.38 283.33,383.38C286.977,383.46 290.933,384.353 295.2,386.06C299.94,387.96 304.14,390.373 307.8,393.3C311.4,396.18 314.493,399.807 317.08,404.18C323.04,414.253 325.193,425.4 323.54,437.62C323.527,437.68 323.413,438.083 323.2,438.83C323.04,439.383 323.147,439.853 323.52,440.24C336.43,453.73 349.84,466.7 362.47,480.54C362.557,480.636 362.681,480.691 362.81,480.691C362.983,480.691 363.141,480.594 363.22,480.44C365.573,475.773 367.59,470.953 369.27,465.98C372.97,455.06 374.03,443.47 373.86,431.94C373.813,428.873 374.167,426.637 374.92,425.23C376.467,422.363 379.1,420.85 382.82,420.69C382.853,420.69 383.297,420.75 384.15,420.87C384.503,420.917 384.833,420.847 385.14,420.66C385.44,420.467 385.76,420.417 386.1,420.51C388.68,421.21 390.65,422.58 392.01,424.62C392.95,426.033 393.477,428.173 393.59,431.04C393.797,436.367 393.843,441.707 393.73,447.06C393.703,448.4 393.483,450.177 393.07,452.39C392.62,454.78 392.57,457.35 392.08,459.53C379.46,515.67 329.02,550.37 272.5,547.99C264.66,547.663 257.66,546.68 251.5,545.04C230.87,539.56 211.74,530.23 196.64,514.86C175.947,493.807 164.413,469.103 162.04,440.75C160.54,422.877 163.19,405.19 169.99,387.69C172.417,381.457 175.39,375.5 178.91,369.82C195.397,343.26 219.19,325.673 250.29,317.06C251.597,316.7 254.4,316.127 258.7,315.34C259.427,315.207 260.973,315.11 263.34,315.05C265.64,314.99 267.45,314.16 269.56,314.12C275.35,314.02 281.61,313.54 287.31,314.53C288.397,314.717 289.79,314.89 291.49,315.05C299.97,315.877 308.767,317.973 317.88,321.34C323.68,323.48 329.08,325.51 331.71,330.06C332.283,331.053 332.57,332.523 332.57,334.47C332.57,336.083 332.27,337.517 331.67,338.77C328.82,344.74 321.69,345.12 316.38,341.63C316.1,341.443 315.79,341.363 315.45,341.39C314.23,341.5 313.3,340.68 312.44,340.37C295.02,334.037 277.177,332.453 258.91,335.62C257.41,335.88 255.343,336.39 252.71,337.15C250.05,337.93 246.93,338.52 244.5,339.54C224.473,347.927 208.573,360.983 196.8,378.71C189.74,389.32 185.62,401.11 183.4,413.57C183.393,413.617 183.25,414.227 182.97,415.4C182.62,416.86 183.11,419.43 182.36,420.65C182.193,420.917 182.097,421.21 182.07,421.53C181.317,430.417 181.46,438.063 182.5,444.47C186.687,470.157 198.657,491.027 218.41,507.08C227.283,514.293 237.387,519.843 248.72,523.73C250.24,524.257 252.467,524.863 255.4,525.55C257.64,526.077 259.863,526.67 262.07,527.33C264.297,527.99 267.44,528.16 271.5,527.84C271.787,527.813 272.037,527.893 272.25,528.08C272.65,528.433 273.133,528.613 273.7,528.62C277.293,528.687 280.887,528.7 284.48,528.66C288.82,528.61 293.66,527.16 298.47,527.15ZM235.24,400.27C237.04,409.99 240.91,418.123 246.85,424.67C248.383,426.357 250.543,428.15 253.33,430.05C254.91,431.12 255.63,432.18 255.55,434.02C255.337,439.34 252.707,441.607 247.66,440.82C247.313,440.767 247.213,440.9 247.36,441.22C251.553,450.193 258.54,455.55 268.32,457.29C268.44,457.317 268.793,457.293 269.38,457.22C269.6,457.187 269.8,457.263 269.98,457.45C270.207,457.69 270.487,457.817 270.82,457.83C272.653,457.903 274.493,457.93 276.34,457.91C280.34,457.85 284.01,455.9 287.85,454.72C288.17,454.627 288.3,454.413 288.24,454.08C288.027,452.867 287.443,451.837 286.49,450.99C286.243,450.777 286.1,450.507 286.06,450.18C285.15,443.59 290.68,437.3 297.09,442.71L311.79,458.32C311.994,458.535 312.096,458.827 312.07,459.12L311.94,460.99C311.08,462.47 309.633,463.337 307.6,463.59C306.663,463.706 305.951,464.511 305.951,465.456C305.951,465.987 306.176,466.494 306.57,466.85C317.083,476.43 327.333,486.54 337.32,497.18C339.393,499.387 341.243,501.67 342.87,504.03C342.894,504.064 342.92,504.097 342.948,504.127C343.295,504.509 343.891,504.54 344.268,504.197C344.301,504.167 344.332,504.134 344.36,504.1L348.09,499.61C349.717,498.463 350.807,497.337 351.36,496.23C351.52,495.903 351.47,495.61 351.21,495.35C335.89,480.23 320.647,465.033 305.48,449.76C304.493,448.767 303.277,447.347 301.83,445.5C301.615,445.222 301.565,444.854 301.7,444.54C302.76,442.12 303.76,440.5 304.09,437.93C305,430.96 304.95,423.74 301.76,417.43C297.773,409.537 291.397,404.61 282.63,402.65C280.497,402.177 277.553,401.943 273.8,401.95C266.37,401.98 257.84,402.43 251.67,401.09C246.01,399.857 240.85,397.467 236.19,393.92C236.083,393.84 235.953,393.797 235.82,393.797C235.483,393.797 235.204,394.073 235.2,394.41L235.24,400.27Z" style="fill:black;fill-rule:nonzero;"/>
        </g>
        <g transform="matrix(1,0,0,1,24.4847,-15.8083)">
            <path d="M706.45,469.3L662.1,513.75C661.8,514.057 661.83,514.327 662.19,514.56C668.33,518.54 674.717,521.57 681.35,523.65C688.337,525.383 693.057,526.5 695.51,527C697.79,527.467 700.233,527.6 702.84,527.4C704.21,527.29 704.58,528.02 705.77,528.09C712.583,528.49 719.33,528.33 726.01,527.61C726.71,527.897 727.25,527.987 727.63,527.88C730.703,526.973 733.977,526.29 737.45,525.83L738.93,525.15C753.323,521.303 765.86,514.61 776.54,505.07C788.42,494.457 797.423,481.81 803.55,467.13C806.057,461.117 807.817,454.717 808.83,447.93C810.09,439.483 810.453,431.257 809.92,423.25C809.24,413.09 806.833,403.17 802.7,393.49C798.2,382.96 791.63,373.62 784.02,364.72C780.093,360.133 775.867,356.317 771.34,353.27C747.93,335.1 719.61,330.02 691,336.82C687.68,337.607 682.07,339.407 674.17,342.22C670.657,343.473 667.973,343.947 666.12,343.64C660.41,342.69 658.37,336.76 660.04,331.69C661.387,327.603 664.337,324.797 668.89,323.27C671.823,322.283 674.763,321.313 677.71,320.36C680.5,319.45 684.63,318.77 688.02,317.62C689.573,317.1 690.943,316.747 692.13,316.56C695.063,316.1 698,315.653 700.94,315.22C704.327,314.72 707.277,314.413 709.79,314.3C732.77,313.247 754.19,318.627 774.05,330.44C788.423,338.98 799.767,349.41 808.08,361.73C816.893,374.777 823.117,388.203 826.75,402.01C830.043,414.523 830.997,427.973 829.61,442.36C827.397,465.32 818.93,486.04 804.21,504.52C795.903,514.947 786.48,523.317 775.94,529.63C763.553,537.037 751.12,542.387 738.64,545.68C738.393,545.747 737.613,545.833 736.3,545.94C735.04,546.04 734.29,546.71 733.21,546.84C723.803,547.96 714.39,548.29 704.97,547.83C698.03,547.49 691.443,546.553 685.21,545.02C661.95,539.3 638.66,526.55 623.26,507.87C611.2,493.25 603.177,476.577 599.19,457.85C597.45,449.67 597.82,440.8 597.92,432.23C597.98,427.3 599.04,422.95 603.73,421.26C605.49,420.627 607.457,420.49 609.63,420.85C611.71,421.197 613.403,422.027 614.71,423.34C617.05,425.7 617.77,427.99 617.57,431.52C616.57,449.393 620.48,465.983 629.3,481.29C629.414,481.488 629.626,481.611 629.855,481.611C630.058,481.611 630.249,481.514 630.37,481.35C631.69,479.56 632.76,477.92 634.36,476.37C642.84,468.09 651.38,459.873 659.98,451.72C667.44,444.65 674.06,437.76 680.92,430.57C681.153,430.323 681.27,430.03 681.27,429.69C681.243,424.743 681.627,421.08 682.42,418.7C687.06,404.653 695.82,394.597 708.7,388.53C711.16,387.37 714.59,386.283 718.99,385.27C722.503,384.457 726.013,383.593 729.52,382.68C742.667,379.253 754.04,373.067 763.64,364.12C764.52,363.307 765.35,363.12 766.13,363.56C766.637,363.84 766.983,364.443 767.17,365.37C767.79,368.55 768.94,371.53 768.97,374.75C769.043,383.457 769.037,392.167 768.95,400.88C768.94,402.4 768.22,403.39 768.04,404.83C766.253,419.283 762.213,432.337 755.92,443.99C750.3,454.41 737.14,462.75 725.68,464.83C724.133,465.117 722.033,465.11 719.38,464.81C712.593,464.043 708.283,465.54 706.45,469.3ZM643.51,500.46L647.37,504.6C647.603,504.847 647.83,504.84 648.05,504.58C650.783,501.333 655.007,496.847 660.72,491.12C669.147,482.673 677.563,474.223 685.97,465.77C686.93,464.803 687.38,463.887 687.32,463.02C687.253,462.06 686.877,460.997 686.19,459.83L711.42,435.33C711.667,435.09 711.947,435.043 712.26,435.19C714.1,436.06 716.86,437.38 715.79,439.96C714.923,441.393 713.73,442.543 712.21,443.41C711.846,443.621 711.622,444.011 711.622,444.431C711.622,444.995 712.026,445.484 712.58,445.59C721.907,447.303 729.617,444.687 735.71,437.74C741.24,431.44 743.58,421.1 746.34,413.29C746.359,413.235 746.369,413.178 746.369,413.12C746.369,412.834 746.134,412.6 745.849,412.6C745.842,412.6 745.836,412.6 745.83,412.6C742.097,412.713 739.627,411.01 738.42,407.49C737.933,405.463 738,403.46 738.62,401.48C738.74,401.1 738.613,400.977 738.24,401.11C730.52,403.86 722.76,404.24 715.75,406.92C705.18,410.96 697.51,423.69 703.14,434.7C703.293,435.007 703.267,435.297 703.06,435.57C701.787,437.283 700.847,438.427 700.24,439C684.247,454.133 668.357,469.377 652.57,484.73C648.81,488.4 644.43,492.08 640.39,495.84C640.172,496.046 640.097,496.362 640.2,496.64C640.887,498.5 641.99,499.773 643.51,500.46Z" style="fill:black;fill-rule:nonzero;"/>
        </g>
        <g transform="matrix(1,0,0,1,15.61,-22.1259)">
            <path d="M714.3,468.57C713.953,468.29 713.81,467.897 713.87,467.39C713.904,467.099 714.153,466.877 714.446,466.877C714.654,466.877 714.847,466.989 714.95,467.17C715.17,467.55 715.203,467.95 715.05,468.37C714.897,468.79 714.647,468.857 714.3,468.57Z" style="fill:rgb(3,21,25);fill-opacity:0.23;fill-rule:nonzero;"/>
        </g>
        <g transform="matrix(-0.0714974,0.997441,-0.997441,-0.0714974,731.96,447.894)">
            <ellipse cx="0" cy="0" rx="0.96" ry="0.51" style="fill:rgb(3,21,25);fill-opacity:0.23;"/>
        </g>
        <g transform="matrix(1,0,0,1,15.61,-22.1259)">
            <path d="M459.17,472.68C459.177,472.88 458.97,472.913 458.55,472.78C458.289,472.7 458.12,472.447 458.15,472.18C458.217,471.56 458,471.113 457.5,470.84C456.747,470.44 456.797,470.273 457.65,470.34C458.45,470.407 459.17,470.757 459.81,471.39C460.023,471.603 460.01,471.8 459.77,471.98L459.38,472.26C459.233,472.36 459.163,472.5 459.17,472.68Z" style="fill-opacity:0.01;fill-rule:nonzero;"/>
        </g>
        <g transform="matrix(1,0,0,1,15.61,-22.1259)">
            <circle cx="842.33" cy="534.64" r="16.75" style="fill:black;"/>
        </g>
        <g transform="matrix(1,0,0,1,15.61,-22.1259)">
            <circle cx="150.27" cy="534.54" r="16.57" style="fill:black;"/>
        </g>
        <g transform="matrix(1,0,0,1,16.4394,-15.5723)">
            <path d="M555.65,518.55C560.603,518.783 563.19,521.14 563.41,525.62C563.53,528 562.923,530.133 561.59,532.02C560.237,533.94 558.397,535.43 556.07,536.49C555.939,536.547 555.854,536.677 555.854,536.82C555.854,536.963 555.939,537.093 556.07,537.15L557.97,538.03C558.23,538.15 558.447,538.33 558.62,538.57L562.48,544.06C562.693,544.36 562.807,544.693 562.82,545.06C562.88,546.167 563.2,547.21 563.78,548.19C563.967,548.497 564.043,548.827 564.01,549.18C563.79,551.46 564.08,553.34 563.24,555.45C561.627,559.49 558.977,562.683 555.29,565.03C555.278,565.038 555.267,565.047 555.256,565.057C555.17,565.141 555.164,565.279 555.245,565.361C555.255,565.372 555.267,565.382 555.28,565.39C557.767,567.11 559.79,569.28 561.35,571.9C561.537,572.22 561.65,572.563 561.69,572.93C561.79,573.923 562.207,574.773 562.94,575.48C563.197,575.725 563.32,576.079 563.27,576.43C563.023,578.023 563.197,579.557 563.79,581.03C563.923,581.357 563.94,581.69 563.84,582.03C560.333,594.117 551.983,600.16 538.79,600.16L534.9,600.09C534.547,600.083 534.257,600.22 534.03,600.5C533.477,601.187 533.17,601.953 533.11,602.8C532.83,606.667 532.06,609.883 530.8,612.45C526.72,620.743 520.783,626.52 512.99,629.78C506.03,632.7 498.12,633.767 489.26,632.98C477.993,631.987 469.157,626.827 462.75,617.5C459.23,612.373 457.623,606.78 457.93,600.72C457.95,600.373 457.787,600.207 457.44,600.22C454.58,600.32 451.78,600.357 449.04,600.33C448.22,600.317 447.073,600.077 445.6,599.61C443.93,599.08 442.47,599.42 440.88,598.66C433.513,595.167 429.1,589.337 427.64,581.17C427.573,580.797 427.637,580.45 427.83,580.13C428.223,579.47 428.25,578.777 427.91,578.05C427.775,577.748 427.753,577.407 427.85,577.09L429.21,572.72C429.303,572.42 429.493,572.203 429.78,572.07C430.327,571.81 430.62,571.38 430.66,570.78C430.693,570.36 430.86,570.007 431.16,569.72L435.56,565.55C435.827,565.29 435.797,565.067 435.47,564.88C429.543,561.467 426.827,556.587 427.32,550.24C427.747,544.673 430.15,540.403 434.53,537.43C434.61,537.375 434.681,537.309 434.742,537.234C435.091,536.804 435.029,536.165 434.603,535.819C434.527,535.757 434.441,535.707 434.35,535.67C429.54,533.68 425.58,528.61 427.68,523.37C429.04,519.98 431.32,518.73 435.11,518.79C443.697,518.917 452.213,518.85 460.66,518.59L555.65,518.55ZM464.17,550.83C499.903,550.917 523.937,550.86 536.27,550.66C538.59,550.62 541.57,549.37 542.63,547.03C545.5,540.66 539.42,536.39 533.75,536.47C518.93,536.67 506.497,536.643 496.45,536.39C483.37,536.123 470.287,536.067 457.2,536.22C454.307,536.253 452.257,536.65 451.05,537.41C445.94,540.63 446.65,549.89 453.49,550.6C454.99,550.76 458.55,550.837 464.17,550.83ZM452.56,582.32C480.267,582.467 508,582.557 535.76,582.59C539.25,582.6 542.73,580.87 543.25,577.05C543.717,573.637 542.54,571.143 539.72,569.57C538.167,568.71 535.75,568.29 532.47,568.31C519.657,568.39 506.813,568.32 493.94,568.1C481.793,568.06 469.64,568.06 457.48,568.1C454.68,568.113 452.593,568.57 451.22,569.47C448.13,571.51 446.25,576.43 448.87,579.63C449.757,580.717 450.987,581.613 452.56,582.32ZM481.95,609.16C492.79,618.97 509.27,613.69 514.27,600.37C514.37,600.103 514.277,599.97 513.99,599.97L495.61,600.1L477.51,599.92C477.09,599.913 476.9,600.12 476.94,600.54C477.22,603.733 478.89,606.607 481.95,609.16Z" style="fill:black;fill-rule:nonzero;"/>
        </g>
        <g transform="matrix(1,0,0,1,15.61,-22.1259)">
            <path d="M690.79,520.86L690.51,520.75C690.415,520.712 690.353,520.62 690.353,520.518C690.353,520.42 690.411,520.33 690.5,520.29L691.12,520.01C691.813,519.697 692.08,519.91 691.92,520.65L691.64,522C691.625,522.131 691.512,522.232 691.38,522.232C691.236,522.232 691.118,522.114 691.118,521.97C691.118,521.96 691.119,521.95 691.12,521.94L691.13,521.35C691.13,521.103 691.017,520.94 690.79,520.86Z" style="fill:rgb(3,21,25);fill-opacity:0.23;fill-rule:nonzero;"/>
        </g>
        <g transform="matrix(1,0,0,1,15.61,-22.1259)">
            <path d="M290.37,524.64C291.423,524.027 291.947,523.41 291.94,522.79C291.941,522.472 292.202,522.212 292.52,522.212C292.758,522.212 292.973,522.358 293.06,522.58C293.407,523.5 293.193,524.18 292.42,524.62C291.893,524.92 291.593,525.083 291.52,525.11C291.127,525.277 290.737,525.167 290.35,524.78C290.345,524.776 290.34,524.772 290.336,524.767C290.309,524.732 290.319,524.679 290.358,524.648C290.362,524.645 290.366,524.642 290.37,524.64Z" style="fill:rgb(3,21,25);fill-opacity:0.23;fill-rule:nonzero;"/>
        </g>
        <g transform="matrix(1,0,0,1,15.61,-22.1259)">
            <path d="M693.12,523.09C693.107,522.723 693.44,522.533 694.12,522.52C694.193,522.519 694.266,522.535 694.333,522.566C694.577,522.679 694.687,522.968 694.576,523.207C694.545,523.275 694.499,523.334 694.44,523.38C693.18,524.407 692.023,524.42 690.97,523.42C690.283,522.767 690.4,522.553 691.32,522.78L693,523.19C693.007,523.191 693.013,523.192 693.02,523.192C693.075,523.192 693.12,523.147 693.12,523.092C693.12,523.091 693.12,523.091 693.12,523.09Z" style="fill:rgb(3,21,25);fill-opacity:0.23;fill-rule:nonzero;"/>
        </g>
        <g transform="matrix(1,0,0,1,15.61,-22.1259)">
            <path d="M738.93,525.15L737.45,525.83L736.59,524.72C736.37,524.433 736.437,524.25 736.79,524.17C738.143,523.877 738.857,524.203 738.93,525.15Z" style="fill-opacity:0.01;fill-rule:nonzero;"/>
        </g>
        <g transform="matrix(1,0,0,1,15.61,-22.1259)">
            <path d="M493.94,568.1L495.97,568.84C496.41,569.007 496.437,569.223 496.05,569.49C494.597,570.477 493.513,571.8 492.8,573.46C492.659,573.8 492.39,574.073 492.05,574.22C491.217,574.587 490.653,575.203 490.36,576.07C490.233,576.45 490,576.747 489.66,576.96C487.733,578.173 486.093,579.69 484.74,581.51C484.527,581.803 484.243,581.95 483.89,581.95L452.56,582.32C450.987,581.613 449.757,580.717 448.87,579.63C446.25,576.43 448.13,571.51 451.22,569.47C452.593,568.57 454.68,568.113 457.48,568.1C469.64,568.06 481.793,568.06 493.94,568.1Z" style="fill-opacity:0.01;fill-rule:nonzero;"/>
        </g>
        <g transform="matrix(1,0,0,1,15.61,-22.1259)">
            <circle cx="190.48" cy="587.67" r="16.25" style="fill:black;"/>
        </g>
        <g transform="matrix(1,0,0,1,15.61,-22.1259)">
            <circle cx="802.19" cy="587.59" r="16.29" style="fill:black;"/>
        </g>
        <g transform="matrix(1,0,0,1,15.61,-22.1259)">
            <circle cx="333.79" cy="586.61" r="10.84" style="fill:black;"/>
        </g>
        <g transform="matrix(1,0,0,1,15.61,-22.1259)">
            <circle cx="658.07" cy="586.68" r="11.01" style="fill:black;"/>
        </g>
        <g transform="matrix(1,0,0,1,15.61,-22.1259)">
            <path d="M495.61,600.1C491.697,604.58 487.143,607.6 481.95,609.16C478.89,606.607 477.22,603.733 476.94,600.54C476.9,600.12 477.09,599.913 477.51,599.92L495.61,600.1Z" style="fill-opacity:0.01;fill-rule:nonzero;"/>
        </g>
        <g transform="matrix(1,0,0,1,15.61,-22.1259)">
            <path d="M538.79,600.16C535.897,600.453 534.003,601.333 533.11,602.8C533.17,601.953 533.477,601.187 534.03,600.5C534.257,600.22 534.547,600.083 534.9,600.09L538.79,600.16Z" style="fill:rgb(3,21,25);fill-opacity:0.23;fill-rule:nonzero;"/>
        </g>
        <g transform="matrix(1,0,0,1,124.979,-55.4493)">
            <circle cx="153.13" cy="668.76" r="8.21" style="fill:black;"/>
        </g>
        <g transform="matrix(0.734915,-0.67816,0.67816,0.734915,746.07,622.8)">
            <ellipse cx="0" cy="0" rx="8.36" ry="8.08" style="fill:black;"/>
        </g>
    </g>
</svg>
