<svg xmlns="http://www.w3.org/2000/svg" height="24" viewBox="0 -960 960 960" width="24"><path d="M572.141-240Q526-240 494-271.859q-32-31.859-32-78T493.859-428q31.859-32 78-32T650-428.141q32 31.859 32 78T650.141-272q-31.859 32-78 32ZM194-50q-43.725 0-74.863-31.138Q88-112.275 88-156v-572q0-43.725 31.137-74.862Q150.275-834 194-834h8v-76h106v76h344v-76h106v76h8q43.725 0 74.862 31.138Q872-771.725 872-728v572q0 43.725-31.138 74.862Q809.725-50 766-50H194Zm0-106h572v-424H194v424Zm0-530h572v-42H194v42Zm0 0v-42 42Z"/></svg>